<?xml version="1.0" standalone="no"?>
<!DOCTYPE svg PUBLIC "-//W3C//DTD SVG 20010904//EN"
 "http://www.w3.org/TR/2001/REC-SVG-20010904/DTD/svg10.dtd">
<svg version="1.0" xmlns="http://www.w3.org/2000/svg"
 width="700.000000pt" height="700.000000pt" viewBox="0 0 700.000000 700.000000"
 preserveAspectRatio="xMidYMid meet">
<metadata>
Created by potrace 1.14, written by Peter Selinger 2001-2017
</metadata>
<g transform="translate(0.000000,700.000000) scale(0.100000,-0.100000)"
fill="#000000" stroke="none">
<path d="M0 3500 l0 -3500 3500 0 3500 0 0 3500 0 3500 -3500 0 -3500 0 0
-3500z m3907 2880 c230 -100 601 -260 826 -357 l407 -176 0 -199 c0 -156 -3
-199 -12 -195 -7 2 -378 163 -825 356 -447 193 -815 351 -819 351 -5 0 -397
-168 -1574 -675 l-235 -101 -3 -154 c-6 -296 22 -735 69 -1070 110 -791 395
-1579 792 -2193 27 -40 34 -59 25 -62 -7 -2 -90 -24 -184 -49 l-171 -44 -84
141 c-276 464 -503 1043 -633 1612 -125 549 -175 1060 -176 1826 l0 236 1083
466 c595 257 1085 467 1089 467 4 0 195 -81 425 -180z m-226 -474 c107 -46
473 -204 814 -351 341 -147 626 -272 632 -278 10 -10 10 -80 3 -317 -10 -312
-25 -505 -60 -760 -146 -1046 -550 -1968 -1176 -2681 -99 -112 -399 -409 -415
-409 -5 0 -98 89 -207 198 -666 662 -1111 1513 -1317 2520 -78 381 -115 728
-122 1148 l-6 300 224 97 c667 289 1425 615 1430 616 3 1 93 -37 200 -83z
m1785 -179 l189 -84 3 -364 c4 -491 -12 -768 -69 -1182 -19 -133 -25 -157 -38
-153 -9 3 -90 24 -181 47 -91 23 -169 46 -174 50 -5 4 -2 58 8 126 9 65 19
134 22 153 29 209 37 382 41 918 3 314 6 572 8 572 1 0 88 -38 191 -83z m-107
-1882 c96 -24 175 -46 177 -47 1 -2 -10 -66 -27 -143 -150 -708 -426 -1378
-804 -1950 -111 -168 -224 -320 -354 -475 -113 -135 -428 -460 -447 -460 -10
0 -241 185 -292 234 -11 11 22 49 181 207 107 107 228 235 270 286 547 665
907 1438 1087 2336 6 31 17 57 23 57 7 0 90 -20 186 -45z m-2618 -2147 c221
-294 474 -552 817 -837 128 -107 229 -197 225 -201 -29 -27 -207 -161 -251
-189 l-53 -34 -69 46 c-256 171 -629 527 -877 837 -97 122 -263 353 -258 359
6 5 368 99 387 100 10 1 42 -33 79 -81z"/>
<path d="M3135 6270 c-187 -81 -644 -278 -1015 -438 l-675 -291 -3 -228 c-14
-1029 158 -1955 514 -2760 104 -236 282 -569 309 -579 12 -5 95 13 95 20 0 2
-30 55 -67 117 -161 277 -334 668 -446 1014 -210 643 -318 1407 -305 2158 l3
188 965 416 c531 229 970 416 975 416 6 0 345 -145 755 -323 410 -177 751
-324 758 -327 10 -4 12 8 10 52 l-3 57 -750 324 c-412 178 -757 326 -765 328
-8 2 -168 -63 -355 -144z"/>
<path d="M2418 4254 c-5 -4 -8 -191 -8 -416 l0 -408 105 0 105 0 0 110 0 110
108 0 c92 0 114 4 157 24 62 29 107 76 137 141 33 72 32 198 -1 273 -28 62
-101 132 -157 151 -44 15 -434 28 -446 15z m377 -194 c49 -19 70 -111 40 -175
-21 -43 -51 -55 -140 -55 l-75 0 0 120 0 120 74 0 c41 0 86 -4 101 -10z"/>
<path d="M3665 4246 c-43 -19 -92 -79 -105 -128 -44 -168 -51 -176 -134 -185
l-56 -6 0 162 0 161 -105 0 -105 0 0 -410 0 -410 105 0 105 0 0 154 0 153 38
7 c20 3 42 6 49 6 6 0 50 -72 98 -160 l87 -160 119 0 c96 0 119 3 119 14 0 8
-51 97 -114 198 l-113 183 33 60 c18 33 40 87 49 120 18 66 52 105 91 105 23
0 24 2 24 69 0 54 -4 70 -16 75 -28 11 -138 6 -169 -8z"/>
<path d="M4241 4238 c-5 -13 -86 -191 -180 -397 -94 -205 -171 -382 -171 -392
0 -17 9 -19 108 -19 l108 0 21 50 21 50 152 0 152 0 21 -50 21 -50 108 0 c96
0 108 2 108 18 0 9 -81 195 -179 412 l-179 395 -51 3 c-45 3 -52 0 -60 -20z
m98 -420 c18 -46 36 -89 38 -95 4 -10 -15 -13 -76 -13 -45 0 -81 2 -81 5 0 13
73 185 79 185 3 0 21 -37 40 -82z"/>
<path d="M5235 3613 c-146 -633 -399 -1231 -742 -1752 -174 -265 -340 -471
-573 -714 l-120 -125 47 -41 c27 -22 51 -41 54 -41 3 0 48 44 100 97 699 724
1160 1603 1384 2640 5 19 -2 24 -47 38 -28 8 -57 15 -64 15 -7 0 -23 -46 -39
-117z"/>
</g>
</svg>
