<svg width="1075" height="131" fill="none" xmlns="http://www.w3.org/2000/svg"><path d="M49.14 77.4H28.98v50.76H0v-126h28.98V53.1h20.88L82.98 2.16h30.78L72.54 63l42.48 65.16H81.9L49.14 77.4zm139.133 52.92c-13.08 0-24.9-2.82-35.46-8.46-10.44-5.64-18.66-13.38-24.66-23.22-5.88-9.96-8.82-21.12-8.82-33.48 0-12.36 2.94-23.46 8.82-33.3 6-9.96 14.22-17.76 24.66-23.4 10.56-5.64 22.38-8.46 35.46-8.46 13.08 0 24.84 2.82 35.28 8.46 10.44 5.64 18.66 13.44 24.66 23.4 6 9.84 9 20.94 9 33.3 0 12.36-3 23.52-9 33.48-6 9.84-14.22 17.58-24.66 23.22-10.44 5.64-22.2 8.46-35.28 8.46zm0-24.84c7.44 0 14.16-1.68 20.16-5.04 6-3.48 10.68-8.28 14.04-14.4 3.48-6.12 5.22-13.08 5.22-20.88 0-7.8-1.74-14.76-5.22-20.88-3.36-6.12-8.04-10.86-14.04-14.22-6-3.48-12.72-5.22-20.16-5.22-7.44 0-14.16 1.74-20.16 5.22-6 3.36-10.74 8.1-14.22 14.22-3.36 6.12-5.04 13.08-5.04 20.88 0 7.8 1.68 14.76 5.04 20.88 3.48 6.12 8.22 10.92 14.22 14.4 6 3.36 12.72 5.04 20.16 5.04zM395.236 2.16v126h-29.16V76.5h-57.24v51.66h-29.16v-126h29.16v49.68h57.24V2.16h29.16zm127.869 23.76h-40.32v102.24h-28.8V25.92h-40.14V2.16h109.26v23.76zm97.302 75.24h-58.5l-11.16 27h-29.88l56.16-126h28.8l56.34 126h-30.6l-11.16-27zm-9.18-22.14l-19.98-48.24-19.98 48.24h39.96zm116.429-1.62h-20.16v50.76h-28.98v-126h28.98V53.1h20.88l33.12-50.94h30.78L751.056 63l42.48 65.16h-33.12l-32.76-50.76zM902.09 25.92h-40.32v102.24h-28.8V25.92h-40.14V2.16h109.26v23.76zm79.329 17.64c15.36 0 27.121 3.42 35.281 10.26 8.28 6.84 12.42 16.98 12.42 30.42 0 14.28-4.56 25.2-13.68 32.76-9 7.44-21.721 11.16-38.161 11.16h-56.88v-126h28.98v41.4h32.04zm-5.76 63c7.56 0 13.44-1.86 17.64-5.58 4.32-3.72 6.48-9.12 6.48-16.2 0-13.08-8.04-19.62-24.12-19.62h-26.28v41.4h26.28zm69.481-104.4h28.98v126h-28.98v-126z" fill="#181818"/></svg>