<svg width="648" height="973" fill="none" xmlns="http://www.w3.org/2000/svg"><g clip-path="url(#clip0_201_1412)"><mask id="a" style="mask-type:luminance" maskUnits="userSpaceOnUse" x="0" y="5" width="666" height="1184"><path d="M665.843 5.08H0v1183.78l665.844-.01-.001-1183.77z" fill="#fff"/></mask><g mask="url(#a)"><mask id="b" style="mask-type:luminance" maskUnits="userSpaceOnUse" x="-2006" y="-1654" width="4865" height="4925"><path d="M2858.87-1653.85h-4864.44V3270.4h4864.44v-4924.25z" fill="#fff"/></mask><g mask="url(#b)"><path d="M-100.692 513.091l-202.005 84.217v42.955c0 27.263 1.584 53.849 4.811 79.644l12.791 5.362c-3.735-27.432-5.547-55.824-5.547-85.006v-34.997l189.95-79.193.113 10.048-180.723 75.354v28.788c0 30.649 2.094 60.453 6.282 89.184l12.962 5.475c-4.868-30.368-7.245-61.977-7.245-94.603v-20.828l168.724-70.331 153.783 64.347v-36.012l-153.896-64.348v-.056zM57.504 670.855l-202.006 84.217v42.955c0 27.263 1.585 53.849 4.811 79.645l12.792 5.362c-3.736-27.432-5.547-55.824-5.547-85.007v-34.996l189.95-79.193.113 10.047-180.724 75.355v28.787c0 30.65 2.094 60.453 6.282 89.184l12.962 5.475c-4.868-30.367-7.245-61.977-7.245-94.602v-20.829l168.725-70.331 153.782 64.348V735.26L57.504 670.912v-.057zm158.14 157.766L13.638 912.838v42.955c0 27.263 1.585 53.847 4.812 79.647l12.791 5.36c-3.736-27.43-5.547-55.825-5.547-85.007v-34.996l189.95-79.193.113 10.047-180.724 75.355v28.787c0 30.65 2.095 60.457 6.283 89.187l12.961 5.47c-4.867-30.37-7.245-61.975-7.245-94.601v-20.828l168.725-70.331 153.783 64.348v-36.013l-153.896-64.347v-.057z" fill="#E8E8E8"/><path d="M-28.584 125.648l-202.006 84.217v42.955c0 27.263 1.585 53.849 4.811 79.645l12.791 5.362c-3.735-27.432-5.546-55.825-5.546-85.007v-34.996l189.95-79.193.113 10.047-180.724 75.355v28.787c0 30.65 2.094 60.453 6.282 89.184l12.962 5.475c-4.868-30.367-7.245-61.977-7.245-94.603v-20.828l168.725-70.331 153.782 64.348v-36.012l-153.895-64.348v-.057z" fill="#DD7336"/><path d="M129.615 283.413L-72.391 367.63v42.955c0 27.263 1.585 53.849 4.811 79.644l12.792 5.363c-3.736-27.433-5.547-55.825-5.547-85.007v-34.996l189.95-79.193.113 10.047-180.724 75.355v28.787c0 30.65 2.094 60.453 6.283 89.184l12.961 5.475c-4.868-30.368-7.245-61.977-7.245-94.603v-20.828l168.725-70.331L283.51 383.83v-36.013L129.615 283.47v-.057zm158.197 157.766L85.806 525.395v42.955c0 27.264 1.585 53.849 4.812 79.645l12.791 5.362c-3.736-27.432-5.547-55.824-5.547-85.007v-34.996l189.95-79.193.113 10.047-180.724 75.355v28.787c0 30.65 2.095 60.453 6.283 89.184l12.961 5.475c-4.867-30.367-7.245-61.977-7.245-94.602v-20.828l168.725-70.332 153.783 64.348v-36.012l-153.896-64.348v-.056zM446.01 598.943L244.004 683.16v42.955c0 27.263 1.585 53.849 4.811 79.645l12.791 5.362c-3.735-27.432-5.546-55.824-5.546-85.007v-34.996l189.95-79.193.113 10.047-180.724 75.355v28.787c0 30.65 2.094 60.453 6.282 89.184l12.962 5.475c-4.868-30.367-7.245-61.977-7.245-94.602v-20.829l168.725-70.331 153.782 64.348v-36.012L446.01 599v-.057zm158.195 157.766l-202.006 84.217v42.955c0 27.263 1.585 53.849 4.811 79.644l12.792 5.363c-3.736-27.433-5.547-55.769-5.547-85.007v-34.996l189.95-79.194.113 10.048-180.724 75.354v28.788c0 30.65 2.094 60.453 6.283 89.184l12.961 5.475c-4.868-30.368-7.245-61.977-7.245-94.603v-20.828l168.725-70.331 153.783 64.348v-36.013l-153.896-64.348v-.056zm158.141 157.709L560.34 998.635v42.955c0 27.26 1.585 53.85 4.811 79.64l12.735 5.31c-3.679-27.43-5.547-55.77-5.547-84.95v-35l189.95-79.19.113 10.048-180.724 75.352v28.79c0 30.65 2.094 60.45 6.283 89.18l12.961 5.48c-4.867-30.37-7.245-61.98-7.245-94.6v-20.83l168.725-70.333 153.783 64.343v-36.008l-153.896-64.348.057-.056zM201.779-104.028L-.227-19.812v42.955c0 27.264 1.585 53.85 4.811 79.645l12.792 5.362c-3.736-27.432-5.547-55.824-5.547-85.007v-34.996l189.95-79.193.113 10.047L21.168-5.644v28.787c0 30.65 2.094 60.454 6.283 89.184l12.961 5.475c-4.867-30.367-7.245-61.977-7.245-94.602V2.37l168.725-70.33L355.674-3.613v-36.012l-153.895-64.348v-.056z" fill="#E8E8E8"/><path d="M359.919 53.736l-202.006 84.217v42.955c0 27.263 1.585 53.849 4.811 79.645l12.792 5.362c-3.736-27.433-5.547-55.825-5.547-85.007v-34.996l189.95-79.193.113 10.047-180.724 75.355v28.787c0 30.65 2.094 60.453 6.283 89.184l12.961 5.475c-4.868-30.367-7.245-61.977-7.245-94.602v-20.829l168.725-70.331 153.782 64.348v-36.012L359.919 53.793v-.057z" fill="#DD7336"/><path d="M518.116 211.445L316.11 295.662v42.955c0 27.263 1.585 53.849 4.811 79.645l12.792 5.362c-3.736-27.433-5.547-55.825-5.547-85.007v-34.996l189.95-79.193.113 10.047-180.724 75.355v28.787c0 30.65 2.094 60.453 6.283 89.184l12.961 5.475c-4.867-30.367-7.245-61.977-7.245-94.602v-20.829l168.725-70.331 153.783 64.348V275.85l-153.896-64.348v-.057zm158.197 157.766l-202.005 84.217v42.955c0 27.263 1.584 53.849 4.811 79.644l12.791 5.363c-3.735-27.433-5.547-55.825-5.547-85.007v-34.997l189.95-79.193.113 10.048-180.724 75.354v28.788c0 30.65 2.095 60.453 6.283 89.183l12.961 5.476c-4.867-30.368-7.244-61.977-7.244-94.603v-20.828l168.724-70.332 153.783 64.348v-36.012l-153.896-64.348v-.056zM834.51 526.976l-202.006 84.216v42.955c0 27.264 1.585 53.849 4.811 79.645l12.792 5.362c-3.735-27.432-5.547-55.768-5.547-85.007v-34.996l189.95-79.193.113 10.047-180.724 75.355v28.787c0 30.65 2.095 60.454 6.283 89.184l12.961 5.475c-4.867-30.367-7.245-61.977-7.245-94.602v-20.829l168.725-70.331 153.783 64.348V591.38L834.51 527.032v-.056zM590.283-175.996L388.277-91.779v42.955c0 27.263 1.585 53.849 4.811 79.644l12.792 5.363c-3.736-27.433-5.547-55.825-5.547-85.007v-34.997l189.95-79.193.113 10.048-180.724 75.354v28.788c0 30.65 2.094 60.453 6.283 89.183l12.961 5.476c-4.867-30.368-7.245-61.977-7.245-94.603v-20.828l168.725-70.332L744.179-75.58v-36.012L590.283-175.94v-.056z" fill="#E8E8E8"/><path d="M748.478-18.232L546.473 65.986v42.955c0 27.263 1.584 53.849 4.811 79.645l12.791 5.362c-3.735-27.432-5.547-55.824-5.547-85.007V73.944l189.95-79.193.113 10.047-180.724 75.355v28.787c.001 30.65 2.095 60.453 6.283 89.184l12.962 5.475c-4.868-30.367-7.245-61.977-7.245-94.602V88.168l168.724-70.33 153.783 64.347V46.173L748.478-18.175v-.056z" fill="#DD7336"/></g></g></g><defs><clipPath id="clip0_201_1412"><path fill="#fff" d="M0 0h648v973H0z"/></clipPath></defs></svg>