<svg width="648" height="1191" fill="none" xmlns="http://www.w3.org/2000/svg"><g clip-path="url(#clip0_152_1416)"><mask id="a" style="mask-type:luminance" maskUnits="userSpaceOnUse" x="0" y="5" width="666" height="1184"><path d="M665.843 5.08H0v1183.78l665.844-.01-.001-1183.77z" fill="#fff"/></mask><g mask="url(#a)"><mask id="b" style="mask-type:luminance" maskUnits="userSpaceOnUse" x="-2006" y="-1654" width="4865" height="4925"><path d="M2858.87-1653.85h-4864.44V3270.4h4864.44v-4924.25z" fill="#fff"/></mask><g mask="url(#b)"><path d="M-14.659 1058.29l-202.005 84.22v42.96c0 27.26 1.584 53.85 4.811 79.64l12.791 5.36c-3.735-27.43-5.547-55.82-5.547-85v-35l189.95-79.19.113 10.04-180.724 75.36v28.79c0 30.65 2.095 60.45 6.283 89.18l12.961 5.48c-4.867-30.37-7.244-61.98-7.244-94.61v-20.83l168.724-70.33 153.783 64.35v-36.01l-153.896-64.35v-.06zm-86.033-545.2l-202.006 84.217v42.955c0 27.263 1.585 53.849 4.811 79.644l12.792 5.362c-3.735-27.432-5.547-55.824-5.547-85.006v-34.997l189.95-79.193.113 10.048-180.724 75.354v28.788c0 30.649 2.095 60.453 6.283 89.184l12.961 5.475c-4.867-30.368-7.244-61.977-7.244-94.603V619.49l168.724-70.331 153.783 64.347v-36.012l-153.896-64.348v-.056zM57.503 670.855l-202.005 84.217v42.955c0 27.263 1.584 53.849 4.811 79.645l12.791 5.362c-3.735-27.432-5.547-55.824-5.547-85.007v-34.996l189.95-79.193.113 10.047-180.724 75.355v28.787c0 30.65 2.095 60.453 6.283 89.184l12.961 5.475c-4.867-30.367-7.244-61.977-7.244-94.602v-20.829l168.724-70.331L211.4 771.272V735.26L57.503 670.912v-.057zm158.141 157.766L13.638 912.838v42.955c0 27.263 1.585 53.847 4.811 79.647l12.792 5.36c-3.736-27.43-5.547-55.825-5.547-85.007v-34.996l189.95-79.193.113 10.047-180.724 75.355v28.787c0 30.65 2.094 60.457 6.283 89.187l12.961 5.47c-4.868-30.37-7.245-61.975-7.245-94.601v-20.828l168.725-70.331 153.782 64.348v-36.013l-153.895-64.347v-.057zm158.198 157.764L171.837 1070.6v42.96c0 27.26 1.584 53.85 4.811 79.64l12.791 5.36c-3.735-27.43-5.547-55.76-5.547-85v-35l189.95-79.193.113 10.043-180.723 75.36v28.79c0 30.65 2.094 60.45 6.282 89.18l12.962 5.48c-4.868-30.37-7.245-61.98-7.245-94.61v-20.83l168.724-70.33 153.783 64.35v-36.01l-153.896-64.349v-.056zM532.04 1144.15l-202.006 84.22v42.95c0 27.27 1.585 53.85 4.811 79.65l12.735 5.3c-3.679-27.43-5.547-55.77-5.547-84.95v-34.99l189.95-79.2.113 10.05-180.724 75.35v28.79c0 30.65 2.094 60.46 6.283 89.19l12.961 5.47c-4.867-30.37-7.245-61.98-7.245-94.6v-20.83l168.725-70.33 153.783 64.35v-36.02l-153.896-64.34.057-.06z" fill="#E8E8E8"/><path d="M-28.584 125.648l-202.006 84.217v42.955c0 27.263 1.585 53.849 4.811 79.645l12.791 5.362c-3.735-27.432-5.546-55.825-5.546-85.007v-34.996l189.95-79.193.113 10.047-180.724 75.355v28.787c0 30.65 2.094 60.453 6.282 89.184l12.962 5.475c-4.868-30.367-7.245-61.977-7.245-94.603v-20.828l168.725-70.331 153.782 64.348v-36.012l-153.895-64.348v-.057z" fill="#DD7336"/><path d="M129.615 283.412l-202.006 84.217v42.955c0 27.263 1.585 53.849 4.811 79.644l12.792 5.363c-3.736-27.433-5.547-55.825-5.547-85.007v-34.996l189.95-79.193.113 10.047-180.724 75.355v28.787c0 30.65 2.094 60.453 6.283 89.184l12.961 5.475c-4.868-30.368-7.245-61.977-7.245-94.603v-20.828l168.725-70.331 153.782 64.348v-36.013l-153.895-64.347v-.057zm158.197 157.766L85.806 525.394v42.955c0 27.264 1.585 53.849 4.812 79.645l12.791 5.362c-3.736-27.432-5.547-55.824-5.547-85.007v-34.996l189.95-79.193.113 10.047-180.724 75.355v28.787c0 30.65 2.095 60.454 6.283 89.184l12.961 5.476c-4.867-30.368-7.245-61.978-7.245-94.603v-20.828l168.725-70.332 153.783 64.348v-36.012l-153.896-64.348v-.056zm158.197 157.763l-202.005 84.217v42.955c0 27.263 1.584 53.849 4.811 79.645l12.791 5.362c-3.735-27.432-5.547-55.824-5.547-85.007v-34.996l189.95-79.193.113 10.047-180.723 75.355v28.787c0 30.65 2.094 60.453 6.282 89.184l12.962 5.475c-4.868-30.367-7.245-61.977-7.245-94.602v-20.829l168.724-70.331 153.783 64.348v-36.012l-153.896-64.348v-.057zm158.196 157.768l-202.006 84.217v42.955c0 27.263 1.585 53.849 4.811 79.644l12.792 5.363c-3.736-27.433-5.547-55.769-5.547-85.007v-34.996l189.95-79.194.113 10.048-180.724 75.354v28.788c0 30.65 2.094 60.453 6.283 89.184l12.961 5.475c-4.868-30.368-7.245-61.977-7.245-94.603v-20.828l168.725-70.331 153.783 64.348v-36.013l-153.896-64.348v-.056zm158.14 157.707L560.34 998.633v42.957c0 27.26 1.584 53.85 4.811 79.64l12.735 5.31c-3.679-27.43-5.547-55.77-5.547-84.95v-35l189.95-79.192.113 10.048-180.724 75.354v28.79c0 30.65 2.094 60.45 6.283 89.18l12.961 5.48c-4.868-30.37-7.245-61.98-7.245-94.61v-20.82l168.725-70.335 153.782 64.345v-36.01l-153.895-64.348.056-.056zM201.779-104.029L-.227-19.813v42.955c0 27.264 1.585 53.85 4.811 79.645l12.792 5.362c-3.736-27.432-5.547-55.824-5.547-85.007v-34.996l189.95-79.193.113 10.047L21.168-5.645v28.787c0 30.65 2.094 60.454 6.283 89.184l12.961 5.475c-4.868-30.367-7.245-61.977-7.245-94.602V2.37l168.725-70.332L355.674-3.613v-36.012l-153.895-64.348v-.056z" fill="#E8E8E8"/><path d="M359.919 53.736l-202.006 84.217v42.955c0 27.263 1.585 53.849 4.811 79.645l12.792 5.362c-3.736-27.433-5.547-55.825-5.547-85.007v-34.996l189.95-79.193.113 10.047-180.724 75.355v28.787c0 30.65 2.094 60.453 6.282 89.184l12.962 5.475c-4.868-30.367-7.245-61.977-7.245-94.602v-20.829l168.725-70.331 153.782 64.348v-36.012L359.919 53.793v-.057z" fill="#DD7336"/><path d="M518.116 211.443L316.11 295.66v42.955c0 27.263 1.585 53.849 4.811 79.645l12.792 5.362c-3.736-27.433-5.547-55.825-5.547-85.007v-34.996l189.95-79.193.113 10.047-180.724 75.355v28.787c0 30.65 2.094 60.453 6.283 89.184l12.961 5.475c-4.867-30.367-7.245-61.977-7.245-94.602v-20.829l168.725-70.331 153.783 64.348v-36.012L518.116 211.5v-.057zm158.197 157.766l-202.005 84.217v42.955c0 27.263 1.584 53.849 4.811 79.644l12.791 5.363c-3.735-27.433-5.547-55.825-5.547-85.007v-34.997l189.95-79.193.113 10.048-180.724 75.354v28.788c0 30.65 2.095 60.453 6.283 89.184l12.961 5.475c-4.867-30.368-7.244-61.977-7.244-94.603v-20.828l168.724-70.331 153.783 64.348v-36.013l-153.896-64.348v-.056zM834.51 526.975l-202.006 84.216v42.955c0 27.264 1.585 53.849 4.811 79.645l12.792 5.362c-3.735-27.432-5.547-55.768-5.547-85.007V619.15l189.95-79.193.113 10.047-180.724 75.355v28.787c0 30.65 2.095 60.454 6.283 89.184l12.961 5.476c-4.867-30.368-7.245-61.978-7.245-94.603v-20.829l168.725-70.331 153.783 64.348v-36.012L834.51 527.031v-.056zM590.283-175.998L388.277-91.781v42.955c0 27.263 1.585 53.849 4.811 79.644l12.792 5.363c-3.736-27.433-5.547-55.825-5.547-85.007v-34.997l189.95-79.193.113 10.048-180.724 75.354v28.788c0 30.65 2.094 60.453 6.282 89.184l12.962 5.475c-4.868-30.368-7.245-61.977-7.245-94.603v-20.828l168.725-70.331 153.782 64.347v-36.012l-153.895-64.348v-.056z" fill="#E8E8E8"/><path d="M748.478-18.233L546.473 65.984v42.955c0 27.263 1.584 53.849 4.811 79.645l12.791 5.362c-3.735-27.432-5.547-55.824-5.547-85.007V73.943L748.478-5.25l.113 10.047-180.724 75.355v28.787c.001 30.65 2.095 60.454 6.283 89.184l12.962 5.475c-4.868-30.367-7.245-61.977-7.245-94.602V88.167l168.724-70.33 153.783 64.347V46.172L748.478-18.176v-.057z" fill="#DD7336"/></g></g></g><defs><clipPath id="clip0_152_1416"><path fill="#fff" d="M0 0h648v1191H0z"/></clipPath></defs></svg>