<svg width="58" height="81" fill="none" xmlns="http://www.w3.org/2000/svg"><path d="M55.675 11.181s-.073-.025-.11-.05l-.16-.074-.318-.137-2.57-1.093v8.584c0 1.553-.037 3.105-.11 4.596a85.203 85.203 0 01-1.053 9.963l5.019 1.28v.011c.06-.373.122-.745.183-1.118l.184-1.218c.049-.36.098-.72.147-1.068.33-2.51.55-5.043.673-7.565.073-1.54.11-3.168.11-4.845V12.05l-2.02-.857.025-.013zM28.777 0L0 12.199v6.223c0 11.926 2.069 22.945 6.132 32.746 1.273 3.056 2.742 6 4.382 8.758.245.422.527.881.82 1.341.147.236.319.497.478.77l4.884-1.242a60.091 60.091 0 01-2.094-3.33 66.672 66.672 0 01-4.075-8.173c-3.832-9.205-5.766-19.59-5.766-30.87v-3.018L28.777 5.217l21.91 9.33V9.329L28.777 0zm20.208 11.938L28.777 3.342 3.047 14.26v4.174c0 11.503 1.984 22.124 5.9 31.54a67.695 67.695 0 004.187 8.398l.807 1.341-1.358.348c-.22-.348-.416-.683-.6-1.006a66.96 66.96 0 01-4.272-8.56c-3.978-9.575-5.997-20.37-5.997-32.072v-5.068L28.777 1.876l20.208 8.596v1.466zM28.486 73.402a43.124 43.124 0 01-2.387-2.025 59.522 59.522 0 01-3.22-3.155l-.403-.447c-1.518-1.64-2.987-3.454-4.394-5.38l-5.398 1.367c.122.187.257.373.38.56a73.592 73.592 0 002.704 3.651c.233.299.478.584.71.87l.6.72.282.323c.428.497.869.994 1.321 1.479l.11.124c.307.335.613.67.93.994l.956.969a68.214 68.214 0 001.958 1.85c.196.175.38.336.563.51.184.162.367.323.55.472 2.51 2.15 4.383 3.354 4.983 3.727.146-.1.416-.261.758-.497l.22-.15c.11-.074.233-.16.356-.235a48.32 48.32 0 002.693-2.05c.036-.025.073-.062.11-.087l-4.407-3.578.025-.012zm27.571-37.29l-5.018-1.28c-1.371 7.206-3.684 13.914-6.904 19.976-4.54 8.596-9.988 14.26-13.904 17.59l4.088 3.354c.147-.124.281-.249.428-.385l.025-.025c.281-.261.575-.522.857-.795a53.6 53.6 0 002.399-2.385c.085-.087.159-.174.244-.261.245-.261.502-.534.747-.807.171-.187.33-.373.502-.56.159-.186.33-.372.502-.571.06-.075.134-.15.195-.224.196-.223.392-.447.576-.683.257-.31.514-.62.77-.944.307-.373.6-.758.907-1.155a57.45 57.45 0 001.358-1.826c.147-.212.306-.423.453-.646a67.062 67.062 0 004.395-7.193c3.415-6.435 5.887-13.565 7.356-21.18h.024zm-8.862 20.36a66.49 66.49 0 01-4.284 7.006c-.159.237-.293.435-.44.622-.49.683-.918 1.267-1.322 1.776a85.63 85.63 0 01-.882 1.13c-.257.311-.501.622-.746.92-.184.223-.367.447-.551.658l-.171.199c-.135.149-.233.273-.343.385l-.184.199c-.171.186-.33.36-.477.534-.257.286-.49.534-.722.795l-.245.248a70.408 70.408 0 01-2.338 2.323c-.073.063-.147.137-.22.2l-1.371-1.131c3.782-3.479 8.63-8.92 12.754-16.72 3.023-5.703 5.276-11.976 6.708-18.672l1.701.435c-1.469 6.845-3.77 13.255-6.854 19.08m-8.715-19.242h2.204l-1.114-2.596-1.09 2.596z" fill="#DD7336"/><path d="M19.237 32.584H17.29v3.08h1.946c.722 0 1.15-.782 1.15-1.565 0-.782-.391-1.515-1.15-1.515z" fill="#DD7336"/><path d="M43.222 13.602L28.78 7.478 6.808 16.794v1.628c0 10.994 1.885 21.118 5.606 30.062a63.374 63.374 0 003.954 7.913 59.23 59.23 0 002.435 3.814l.6.832a64.099 64.099 0 002.754 3.553c.171.198.33.397.526.62.38.436.76.858 1.139 1.28l.392.435a51.304 51.304 0 003.109 3.044c.195.174.379.347.575.509.122.112.759.646.844.733 3.807-3.18 9.242-8.733 13.77-17.304 3.489-6.572 5.888-13.938 7.136-21.901a86.52 86.52 0 00.93-9.093c.074-1.416.099-2.932.099-4.497V16.77l-7.467-3.168h.012zM19.244 38.099h-1.91v2.77h-2.766V30.136c1.567 0 3.097-.012 4.664 0 2.546 0 3.843 2.012 3.794 4.037 0 1.963-1.285 3.926-3.794 3.926m14.786 2.795h-3.134l-2.313-4.137c-.318.05-.943.05-1.31.05v4.1h-2.766V30.172h2.766v4.2c.44 0 1.163.024 1.543-.175.49-.248.648-.894.954-2.174.319-1.304 1.347-2.36 3.82-1.838v1.888c-.662-.05-1.115.112-1.286.77-.355 1.292-.71 2.199-1.298 2.857 1.017 1.603 1.996 3.205 3.024 4.808v.41-.025zm8.176 0l-.624-1.33h-3.953l-.6 1.33h-2.889v-.385l4.847-10.46h1.273l4.81 10.46v.385h-2.864z" fill="#DD7336"/></svg>