<svg width="260" height="54" fill="none" xmlns="http://www.w3.org/2000/svg"><g clip-path="url(#clip0_2004_1080)" fill="#fff"><path d="M37.793 7.547s-.05-.017-.074-.034l-.107-.05-.213-.092-1.722-.738v5.794c0 1.048-.024 2.096-.074 3.102a57.904 57.904 0 01-.705 6.725l3.362.864v.008l.123-.754c.04-.277.082-.545.123-.822l.098-.721a62.78 62.78 0 00.451-5.107c.05-1.04.074-2.138.074-3.27V8.134l-1.353-.579.017-.008zM19.775 0L.5 8.234v4.201c0 8.05 1.386 15.487 4.108 22.103a46.927 46.927 0 002.935 5.912c.164.285.352.595.55.905.097.16.212.336.319.52l3.271-.838a45.136 45.136 0 01-4.132-7.764c-2.566-6.214-3.862-13.224-3.862-20.838v-2.037l16.086-6.876 14.676 6.297V6.297L19.775 0zm13.537 8.058L19.775 2.256 2.542 9.626v2.818c0 7.764 1.328 14.933 3.951 21.29a45.84 45.84 0 002.804 5.668l.541.905-.91.235a16.439 16.439 0 01-.401-.68 45.33 45.33 0 01-2.862-5.777c-2.664-6.465-4.017-13.751-4.017-21.65V9.014l18.127-7.748L33.312 7.07v.99zM19.58 49.547a28.565 28.565 0 01-1.598-1.366 40.012 40.012 0 01-2.157-2.13l-.27-.302a40.746 40.746 0 01-2.944-3.63l-3.615.922c.082.125.172.251.254.377a49.727 49.727 0 001.812 2.465c.155.201.32.394.475.587.131.16.27.327.402.486l.188.218c.287.336.583.671.886.998l.074.084c.205.226.41.453.623.67l.64.655c.434.427.869.847 1.311 1.25.131.117.254.226.377.343.123.11.246.218.37.319 1.68 1.45 2.934 2.264 3.336 2.515.099-.067.279-.176.509-.335l.147-.1c.074-.051.156-.11.238-.16a32.359 32.359 0 001.804-1.384c.024-.016.049-.042.073-.058l-2.951-2.415.016-.009zm18.468-25.172l-3.361-.863c-.918 4.863-2.468 9.391-4.624 13.483-3.042 5.802-6.69 9.626-9.314 11.873l2.738 2.264a6.81 6.81 0 00.287-.26l.017-.017c.188-.176.385-.352.574-.536a36.071 36.071 0 001.607-1.61c.057-.059.106-.117.164-.176.164-.176.336-.36.5-.545.114-.126.221-.252.336-.377.106-.126.221-.252.336-.386.041-.05.09-.1.131-.151.131-.151.263-.302.386-.461.172-.21.344-.42.516-.638.205-.251.402-.511.607-.78.303-.394.607-.804.91-1.232.098-.143.205-.285.303-.436a45.333 45.333 0 002.944-4.855c2.287-4.343 3.943-9.157 4.927-14.297h.017zm-5.935 13.743a44.94 44.94 0 01-2.87 4.73c-.107.16-.197.293-.295.419-.328.461-.615.855-.886 1.2-.196.259-.393.51-.59.762-.172.21-.336.42-.5.62-.123.152-.246.303-.369.445l-.115.134c-.09.1-.156.185-.23.26l-.122.134a11.68 11.68 0 00-.32.36c-.172.194-.328.361-.484.537l-.164.168a47.377 47.377 0 01-1.566 1.568c-.049.042-.098.092-.147.134l-.919-.763c2.534-2.348 5.78-6.02 8.543-11.286 2.026-3.849 3.534-8.083 4.493-12.603l1.14.294c-.984 4.62-2.525 8.947-4.591 12.88m-5.837-12.989h1.476l-.746-1.753-.73 1.753z"/><path d="M13.386 21.994h-1.303v2.08h1.303c.484 0 .77-.529.77-1.057 0-.528-.261-1.023-.77-1.023z"/><path d="M29.451 9.182l-9.674-4.134L5.06 11.337v1.098c0 7.42 1.263 14.255 3.755 20.292a42.91 42.91 0 002.648 5.341 39.977 39.977 0 001.632 2.575l.402.561a43.182 43.182 0 001.844 2.398c.115.135.222.269.353.42.254.293.508.578.762.863l.263.294a34.505 34.505 0 002.082 2.054c.131.118.254.235.386.344.082.076.508.436.565.495 2.55-2.147 6.19-5.895 9.224-11.68 2.337-4.436 3.944-9.409 4.78-14.784.311-2.02.525-4.091.623-6.138.05-.955.066-1.978.066-3.035V11.32l-5.002-2.138h.008zM13.39 25.717h-1.279v1.87h-1.853v-7.245c1.05 0 2.074-.008 3.124 0 1.705 0 2.574 1.359 2.542 2.725 0 1.325-.861 2.65-2.542 2.65m9.904 1.887h-2.099l-1.55-2.793c-.213.034-.63.034-.877.034v2.767h-1.853v-7.245h1.853v2.835c.295 0 .78.016 1.033-.118.328-.168.435-.604.64-1.467.213-.88.902-1.593 2.558-1.241v1.274c-.443-.033-.746.076-.861.52-.238.872-.476 1.484-.87 1.929.681 1.081 1.337 2.163 2.026 3.245v.276-.016zm7.387 0h-1.91l-.418-.898h-2.649l-.401.898H23.36v-.26l3.247-7.06h.852l3.222 7.06v.26h-.008zM53.965 39.25V18.455c3.017 0 5.952-.033 8.977 0 4.879 0 7.38 3.891 7.29 7.815 0 3.799-2.469 7.606-7.29 7.606h-3.656v5.374h-5.321zm8.977-10.095c1.394 0 2.206-1.518 2.206-3.027 0-1.51-.754-2.944-2.205-2.944h-3.747v5.97h3.747zm17.942 2.105c-.606.092-1.803.092-2.525.092v7.932h-5.313V18.489h5.313v8.142c.845 0 2.239.059 2.96-.327.926-.478 1.246-1.719 1.828-4.218.607-2.524 2.583-4.578 7.346-3.563v3.655c-1.279-.092-2.148.21-2.467 1.485-.673 2.498-1.361 4.25-2.501 5.525 1.943 3.086 3.837 6.205 5.813 9.3v.804h-6.01l-4.444-8.016v-.017zm27.443 5.684l-1.164 2.582h-5.551v-.737l9.322-20.259h2.444l9.231 20.259v.737h-5.493l-1.189-2.582h-7.608.008zm1.714-4.545h4.214l-2.124-5.023-2.09 5.023zm28.163-3.765c1.656.864 2.525 2.558 2.525 4.453 0 3.564-2.263 6.33-6.445 6.33h-9.789v-20.76h8.978c3.779 0 6.419 2.523 6.419 6.389 0 1.274-.672 2.758-1.68 3.597m-8.396-5.258v3.48h3.28c1.016 0 1.541-.805 1.566-1.635.032-.922-.492-1.845-1.566-1.845h-3.28zm0 7.874v3.446h4.091c1.017 0 1.484-.771 1.566-1.601.058-.948-.549-1.845-1.598-1.845h-4.067.008zm18.407 5.685l-1.164 2.582h-5.551v-.737l9.322-20.259h2.444l9.231 20.259v.737h-5.493l-1.189-2.582h-7.608.008zm1.714-4.545h4.214l-2.124-5.023-2.09 5.023zm26.049 7.137v-8.318h-6.305v8.318h-5.312V18.741h5.312v7.513h6.305v-7.513h5.313v20.795h-5.313zm14.954-16.04v16.04h-5.288V18.741h12.667v4.755h-7.379zm14.17 13.448l-1.164 2.582h-5.551v-.737l9.322-20.259h2.443l9.232 20.259v.737h-5.493l-1.189-2.582h-7.608.008zm1.713-4.545h4.215l-2.124-5.023-2.091 5.023zm14.463 7.103V18.707c3.017 0 5.952-.033 8.977 0 4.879 0 7.379 3.891 7.289 7.815 0 3.799-2.468 7.605-7.289 7.605h-3.656v5.375h-5.321zm8.977-10.095c1.394 0 2.206-1.518 2.206-3.027 0-1.51-.755-2.944-2.206-2.944h-3.747v5.97h3.747zm9.518 5.517c1.566-.025 1.886-.712 2.124-2.64l1.541-13.543h14.028v16.183h2.034v7.044h-4.297v-2.432h-12.142v2.432h-4.034v-7.044h.754-.008zm7.346-2.465c-.057.83-.295 2.046-.926 2.583h5.985V23.395h-4.124l-.926 9.056-.009.008z"/></g><defs><clipPath id="clip0_2004_1080"><path fill="#fff" transform="translate(.5)" d="M0 0h259v54H0z"/></clipPath></defs></svg>