<svg width="200" height="42" fill="none" xmlns="http://www.w3.org/2000/svg"><g clip-path="url(#clip0_2001_1448)" fill="#297ABD"><path d="M28.797 5.871s-.038-.013-.057-.026l-.082-.04-.165-.07-1.329-.575v4.507c0 .815-.019 1.63-.057 2.413a45.369 45.369 0 01-.544 5.23l2.595.672v.006l.095-.587.095-.639c.026-.189.05-.378.076-.56.171-1.318.285-2.648.348-3.972.038-.809.057-1.663.057-2.544V6.328l-1.044-.45.012-.007zM14.884 0L0 6.404v3.268c0 6.26 1.07 12.045 3.172 17.191a36.608 36.608 0 002.69 5.302c.077.124.165.261.248.405l2.526-.653a35.226 35.226 0 01-3.19-6.04c-1.984-4.83-2.984-10.283-2.984-16.204V8.087l12.421-5.348 11.333 4.898v-2.74L14.885 0zm10.453 6.267L14.884 1.754 1.576 7.487v2.191c0 6.04 1.026 11.616 3.052 16.559a35.758 35.758 0 002.583 5.113l-.703.183a12.77 12.77 0 01-.31-.529 35.363 35.363 0 01-2.21-4.493C1.932 21.483.887 15.815.887 9.67V7.01L14.884.985l10.453 4.513v.769zM14.734 38.536a22.37 22.37 0 01-1.235-1.063 30.987 30.987 0 01-1.665-1.657l-.209-.234a31.644 31.644 0 01-2.272-2.824l-2.792.717c.063.098.133.196.196.294.45.658.918 1.297 1.399 1.917.12.157.247.307.367.457.101.123.21.254.31.378l.146.17c.222.26.45.521.684.776l.057.065c.158.176.316.352.48.522l.495.508c.335.333.67.659 1.013.972.101.091.196.176.291.267.095.085.19.17.285.248 1.298 1.128 2.266 1.761 2.577 1.957.076-.053.215-.137.392-.261l.114-.078c.057-.04.12-.085.184-.124.462-.333.93-.692 1.393-1.076.019-.014.038-.033.057-.046l-2.28-1.878.013-.007zm14.261-19.577l-2.595-.672c-.71 3.783-1.906 7.305-3.571 10.487-2.349 4.513-5.166 7.487-7.192 9.235l2.114 1.76c.076-.064.146-.13.222-.201l.013-.014c.145-.137.297-.273.443-.417.399-.378.817-.795 1.24-1.252.045-.046.083-.091.127-.137.127-.137.26-.28.387-.424.088-.098.17-.196.259-.293.082-.098.171-.196.26-.3.031-.04.07-.079.1-.118.102-.117.204-.235.299-.358.132-.163.265-.327.398-.496.159-.196.31-.398.469-.607.234-.306.468-.626.703-.958.076-.111.158-.222.234-.34a35.298 35.298 0 002.273-3.776c1.766-3.378 3.045-7.121 3.805-11.12h.012zm-4.583 10.689a34.979 34.979 0 01-2.216 3.678 5.348 5.348 0 01-.228.326 46.435 46.435 0 01-1.14 1.526c-.133.164-.26.327-.386.483-.095.117-.19.235-.285.346l-.088.104c-.07.078-.12.144-.178.202l-.095.104c-.088.098-.17.19-.247.281-.133.15-.253.28-.373.417l-.127.13c-.38.405-.779.803-1.21 1.22-.037.033-.075.072-.113.105l-.71-.594c1.957-1.826 4.464-4.682 6.598-8.778 1.564-2.994 2.729-6.287 3.47-9.802l.88.228c-.76 3.594-1.95 6.959-3.546 10.018M19.91 19.539h1.14l-.576-1.363-.564 1.363z"/><path d="M9.95 17.105H8.943v1.618H9.95c.373 0 .595-.411.595-.822 0-.41-.203-.796-.595-.796z"/><path d="M22.357 7.141l-7.471-3.215L3.52 8.817v.854c0 5.772.975 11.087 2.9 15.783a33.472 33.472 0 003.305 6.157l.31.436a33.55 33.55 0 001.425 1.866c.088.104.17.208.272.326.196.228.393.45.589.672l.202.228a26.74 26.74 0 001.608 1.598c.102.09.197.182.298.267.063.059.393.34.437.385 1.969-1.67 4.78-4.585 7.122-9.085 1.805-3.45 3.046-7.317 3.691-11.498.241-1.572.406-3.182.482-4.774.038-.743.05-1.539.05-2.36v-.868L22.35 7.141h.007zM9.954 20.001h-.988v1.455h-1.43v-5.635c.81 0 1.601-.006 2.412 0 1.316 0 1.987 1.057 1.962 2.12 0 1.03-.665 2.06-1.962 2.06m7.648 1.468h-1.621l-1.197-2.172c-.164.027-.487.027-.677.027v2.152H12.67V15.84h1.43v2.204c.229 0 .602.013.799-.091.253-.13.335-.47.493-1.141.165-.685.697-1.24 1.976-.965v.99c-.342-.025-.576.06-.665.405-.184.678-.367 1.155-.671 1.5.525.841 1.032 1.683 1.564 2.524v.215-.013zm5.704 0h-1.475l-.323-.698h-2.045l-.31.698h-1.494v-.202l2.507-5.491h.658l2.488 5.491v.202H23.3zm17.985 9.058V14.353c2.33 0 4.597-.026 6.933 0 3.767 0 5.698 3.027 5.628 6.079 0 2.954-1.906 5.915-5.628 5.915h-2.824v4.18h-4.109zm6.933-7.852c1.076 0 1.703-1.18 1.703-2.354 0-1.174-.583-2.29-1.703-2.29h-2.894v4.644h2.894zm13.854 1.637c-.468.071-1.393.071-1.95.071v6.17H56.02V14.379h4.102v6.333c.652 0 1.728.045 2.286-.255.715-.371.962-1.337 1.411-3.28.469-1.963 1.995-3.561 5.673-2.772v2.844c-.988-.072-1.659.163-1.906 1.154-.519 1.943-1.05 3.306-1.93 4.298 1.5 2.4 2.962 4.826 4.488 7.232v.627h-4.64l-3.432-6.235v-.013zm21.191 4.422l-.899 2.008h-4.286v-.573l7.199-15.757h1.886l7.13 15.757v.573H90.05l-.918-2.008h-5.875.006zm1.323-3.535h3.255l-1.64-3.907-1.614 3.907zm21.75-2.926c1.279.671 1.95 1.989 1.95 3.463 0 2.771-1.748 4.924-4.977 4.924H95.75V14.512h6.933c2.918 0 4.957 1.963 4.957 4.97 0 .99-.519 2.145-1.298 2.797m-6.483-4.089v2.706h2.532c.785 0 1.191-.626 1.21-1.271.025-.718-.38-1.435-1.21-1.435h-2.532zm0 6.124v2.68h3.159c.785 0 1.146-.6 1.209-1.245.045-.737-.424-1.435-1.234-1.435h-3.14.006zm14.213 4.42l-.899 2.008h-4.286v-.573l7.198-15.757h1.887l7.129 15.757v.573h-4.242l-.918-2.008h-5.875.006zm1.323-3.535h3.254l-1.639-3.907-1.615 3.907zm20.115 5.551v-6.47h-4.868v6.47h-4.103V14.576h4.103v5.844h4.868v-5.844h4.103V30.75h-4.103zm11.548-12.476V30.75h-4.083V14.576h9.781v3.698h-5.698zM158 28.734l-.899 2.008h-4.287v-.573l7.199-15.757h1.887l7.128 15.757v.573h-4.241l-.918-2.008h-5.876.007zm1.323-3.535h3.254l-1.64-3.907-1.614 3.907zm11.167 5.526V14.55c2.33 0 4.597-.026 6.933 0 3.767 0 5.698 3.026 5.628 6.078 0 2.954-1.906 5.915-5.628 5.915h-2.824v4.18h-4.109zm6.933-7.853c1.076 0 1.703-1.18 1.703-2.354 0-1.174-.583-2.29-1.703-2.29h-2.894v4.644h2.894zm7.35 4.291c1.21-.02 1.457-.554 1.64-2.054l1.19-10.533h10.833v12.587h1.57v5.478h-3.317v-1.89h-9.377v1.89h-3.115v-5.478h.583-.007zm5.673-1.917c-.044.645-.228 1.591-.715 2.008h4.621v-9.058h-3.184l-.716 7.043-.006.007z"/></g><defs><clipPath id="clip0_2001_1448"><path fill="#fff" d="M0 0h200v42H0z"/></clipPath></defs></svg>