<svg width="221" height="87" fill="none" xmlns="http://www.w3.org/2000/svg"><path d="M171.63 18.464v3.782a21.41 21.41 0 014.306-.441c.896.008 1.79.067 2.677.176v-4.413a27.753 27.753 0 00-6.983.896z" fill="#328D2E"/><path d="M202.504 44.955h-4.357a22.909 22.909 0 01-.391 3.353h4.912v-.264a27.965 27.965 0 00-.164-3.09z" fill="#E73B2B"/><path d="M197.748 48.308a22.64 22.64 0 00.392-3.353h-6.845a16.358 16.358 0 01-1.515 10.528 5.426 5.426 0 012.249 3.964 5.412 5.412 0 01-1.573 4.276 5.425 5.425 0 01-4.283 1.57 5.434 5.434 0 01-3.971-2.245 16.608 16.608 0 01-7.488 1.803 18.11 18.11 0 01-3.094-.303v11.184a28.08 28.08 0 003.094.177 28.143 28.143 0 0019.605-8.13 28.05 28.05 0 008.329-19.496l-4.9.025z" fill="#EB5893"/><path d="M189.785 55.483a5.44 5.44 0 00-7.004.573 5.413 5.413 0 00-.574 6.992 16.886 16.886 0 004.383-3.19 16.604 16.604 0 003.195-4.375z" fill="#00A552"/><path d="M186.649 65.38a5.445 5.445 0 005.217-3.797 5.427 5.427 0 00-2.085-6.1 16.566 16.566 0 01-3.182 4.375 16.827 16.827 0 01-4.382 3.19 5.425 5.425 0 004.432 2.333z" fill="#971D40"/><path d="M199.383 20.607a32.635 32.635 0 00-12.749-8.091 32.68 32.68 0 00-15.033-1.492v7.44a27.736 27.736 0 016.983-.896v4.413a21.547 21.547 0 018.714 3.064 5.419 5.419 0 013.78-2.043 5.432 5.432 0 015.912 5.223 5.42 5.42 0 01-1.572 3.995 5.657 5.657 0 01-.53.428 21.48 21.48 0 013.27 11.348v.933h4.357a27.73 27.73 0 01.177 3.09v.264h6.314a32.32 32.32 0 00-9.597-27.739l-.026.063z" fill="#FBBA00"/><path d="M187.333 25.045a5.403 5.403 0 00.526 7.04 5.426 5.426 0 007.051.525 21.79 21.79 0 00-3.371-4.21 22.348 22.348 0 00-4.206-3.355z" fill="#EB5893"/><path d="M195.458 24.528a5.297 5.297 0 00-8.121.517 22.275 22.275 0 014.218 3.392 21.719 21.719 0 013.372 4.211c.186-.132.363-.275.531-.428a5.43 5.43 0 001.602-3.846 5.43 5.43 0 00-1.602-3.846z" fill="#E73B2B"/><path d="M178.617 21.981a23.477 23.477 0 00-2.677-.176c-1.447.001-2.889.15-4.306.441v-3.782a27.505 27.505 0 00-14.724 9.774 27.425 27.425 0 00-5.722 16.704h11.088a16.22 16.22 0 011.654-7.111 5.415 5.415 0 01-.677-8.24 5.429 5.429 0 014.284-1.57 5.439 5.439 0 013.97 2.244 16.288 16.288 0 017.123-1.651l-.013-6.633z" fill="#00A552"/><path d="M163.928 37.83a5.322 5.322 0 003.144 1.022 5.443 5.443 0 005.443-5.434 5.3 5.3 0 00-1.023-3.153 15.997 15.997 0 00-7.577 7.566h.013z" fill="#FBBA00"/><path d="M167.076 27.996a5.435 5.435 0 00-5.164 3.773 5.424 5.424 0 002.02 6.062 15.997 15.997 0 017.577-7.566 5.412 5.412 0 00-4.433-2.27z" fill="#328D2E"/><path d="M11 59.921v-7.565h3.372c.328-.002.654.036.973.113.28.072.542.2.77.378.184.161.338.353.455.568.133.261.198.552.19.845.017.318-.048.635-.19.92-.147.294-.38.537-.67.694.21.05.405.149.569.29.152.122.281.271.378.44.096.176.168.362.215.556.026.21.026.42 0 .63a2.064 2.064 0 01-.934 1.64 2.288 2.288 0 01-1.061.415c-.38.061-.764.09-1.15.089l-2.916-.013zm2.892-4.438h.468c.156-.018.307-.07.442-.151.12-.07.22-.17.29-.29a.78.78 0 00.126-.43.693.693 0 00-.316-.656.848.848 0 00-.403-.125h-1.945v1.652h1.338zm-1.338 3.076h2.084c.214-.02.42-.098.593-.227a.894.894 0 00.341-.731.73.73 0 00-.114-.416.592.592 0 00-.265-.265.91.91 0 00-.417-.176h-2.222v1.815zm7.786-2.446c-.003.316.04.63.126.933.07.289.198.56.38.795.168.228.389.414.643.542a2.2 2.2 0 002.059-.089 1.262 1.262 0 00.555-.857h1.503a2.52 2.52 0 01-.34 1.11 2.525 2.525 0 01-.708.794 3.5 3.5 0 01-.998.492 4.47 4.47 0 01-1.162.151 3.792 3.792 0 01-1.566-.29 3.235 3.235 0 01-1.149-.794 3.454 3.454 0 01-.707-1.261 5.035 5.035 0 01-.227-1.551 4.672 4.672 0 01.19-1.5 3.327 3.327 0 011.856-2.043 3.87 3.87 0 011.578-.29 4.3 4.3 0 011.162.151c.349.092.678.246.972.454.29.212.531.483.708.794.186.362.302.756.34 1.16h-1.452a1.412 1.412 0 00-.555-.857 1.858 1.858 0 00-1.124-.328 2.086 2.086 0 00-.935.202 1.843 1.843 0 00-.644.555 2.1 2.1 0 00-.379.794 3.326 3.326 0 00-.126.933zm12.644-3.77v1.387h-3.865v1.753h3.372v1.387H29.12v1.69h3.865v1.361h-5.418v-7.565l5.418-.013zm3.743 0L39 55.911l2.235-3.568h1.705v7.565h-1.59v-5.22l-2.033 3.316h-.695l-1.995-3.316v5.233h-1.591v-7.565l1.692-.013zm10.072 4.892l3.713-4.892h1.263v7.565h-1.566V55.08l-3.7 4.842h-1.263v-7.565h1.553v4.88zm10.244-4.892c.425-.007.85.044 1.263.151.345.079.67.234.947.454.27.221.479.508.606.833.15.402.215.831.19 1.26.004.39-.07.775-.215 1.135a2.359 2.359 0 01-.607.832 2.68 2.68 0 01-.909.517c-.371.12-.76.179-1.149.177h-1.49v2.232h-1.553v-7.566l2.917-.025zm0 3.972c.188.001.375-.024.555-.076.16-.047.31-.124.442-.227a1.26 1.26 0 00.442-.958 1.144 1.144 0 00-.379-1.021 1.757 1.757 0 00-1.06-.303h-1.364v2.522l1.364.063zm6.416-.832h3.207V52.33h1.528v7.565h-1.528V56.87H63.46v3.051h-1.58v-7.565h1.554l.026 3.127zm7.123 4.438v-7.565h1.553v2.736H73.6c.427 0 .852.06 1.263.176.354.106.67.312.91.593.167.197.295.424.378.668.092.298.134.61.127.92.014.44-.086.874-.29 1.262-.171.329-.435.6-.759.781a2.93 2.93 0 01-.934.353 6.317 6.317 0 01-1.137.089l-2.576-.013zm1.553-1.362h1.036c.197.013.396.013.593 0a1.72 1.72 0 00.53-.164c.148-.082.274-.2.367-.34.11-.178.162-.384.152-.593a1.04 1.04 0 00-.127-.517 1.035 1.035 0 00-.315-.302 1.698 1.698 0 00-.468-.126 3.814 3.814 0 00-.543 0h-1.263l.038 2.042zm5.153-6.216h1.553v7.565h-1.553v-7.565zm5.466 4.892l3.7-4.892h1.263v7.565h-1.566V55.08l-3.7 4.842h-1.263v-7.565h1.566v4.88zm1.856-5.396a2.376 2.376 0 01-1.44-.416 1.778 1.778 0 01-.656-1.261h1.263a.744.744 0 00.808.618c.187.007.37-.05.518-.164a.693.693 0 00.265-.454h1.263a1.815 1.815 0 01-.695 1.26c-.39.269-.852.414-1.326.417zm12.139 1.273v-1.11h1.566v1.11h.378a4.42 4.42 0 011.263.177c.359.116.69.305.973.555.276.248.488.56.618.907.162.4.24.83.228 1.261a2.919 2.919 0 01-.745 2.156 3.136 3.136 0 01-2.223.744h-.43v1.261H96.75v-1.26h-.38a3.958 3.958 0 01-1.262-.19 2.527 2.527 0 01-.973-.542 2.32 2.32 0 01-.618-.908c-.163-.4-.24-.83-.228-1.26a2.907 2.907 0 01.809-2.182 3.134 3.134 0 012.222-.744l.43.025zm0 4.489v-3.19h-.442a1.393 1.393 0 00-1.15.454 1.812 1.812 0 00-.34 1.26c-.006.41.142.806.416 1.11a1.49 1.49 0 001.111.416l.405-.05zm1.566-3.19v3.19h.442a1.392 1.392 0 001.149-.454 1.76 1.76 0 00.341-1.26 1.627 1.627 0 00-.417-1.11 1.451 1.451 0 00-1.111-.429l-.404.063zm10.776-2.068v1.387h-3.865v1.753h3.385v1.387h-3.385v1.69h3.865v1.361h-5.418v-7.565l5.418-.013zm3.117 3.77c-.003.316.04.63.127.933.069.286.194.556.366.795.175.223.394.407.644.542.289.146.61.22.934.214.401.016.797-.09 1.137-.303.291-.2.491-.509.556-.857h1.477a2.517 2.517 0 01-.341 1.11 2.404 2.404 0 01-.72.794c-.301.22-.639.387-.997.492a4.354 4.354 0 01-1.15.151 3.797 3.797 0 01-1.566-.29 3.138 3.138 0 01-1.149-.794 3.453 3.453 0 01-.707-1.261 5.069 5.069 0 01-.24-1.551 4.681 4.681 0 01.253-1.538 3.326 3.326 0 011.856-2.043 3.794 3.794 0 011.566-.29c.397-.002.792.048 1.175.151.348.092.678.246.972.454.287.215.527.485.707.795.187.361.302.755.341 1.16h-1.477a1.464 1.464 0 00-.556-.858 1.896 1.896 0 00-1.137-.327 2.176 2.176 0 00-.934.201c-.25.14-.47.328-.644.555a2.275 2.275 0 00-.366.794 3.32 3.32 0 00-.127.971zm6.668-2.383v-1.387h6.315v1.387h-2.387v6.191h-1.566v-6.19h-2.362zm9.585 3.505l3.712-4.892h1.263v7.565h-1.553V55.08l-3.713 4.842h-1.263v-7.565h1.554v4.88zm7.306 2.686v-7.565h3.372a4.03 4.03 0 01.972.113c.281.07.543.198.771.378.184.161.338.353.454.568.133.261.199.552.19.845.011.317-.053.633-.19.92-.146.294-.38.537-.669.694.21.05.404.149.568.29.156.118.286.269.379.44.095.176.167.362.215.556.025.21.025.42 0 .63a2.092 2.092 0 01-.269.932 2.084 2.084 0 01-.666.707 2.29 2.29 0 01-1.061.416c-.38.061-.764.09-1.149.089l-2.917-.013zm2.93-4.438h.467c.157-.018.307-.07.442-.151.12-.07.221-.17.291-.29a.785.785 0 00.126-.43.735.735 0 00-.088-.415.701.701 0 00-.228-.24.849.849 0 00-.404-.126h-1.983v1.652h1.377zm-1.377 3.14h2.084c.215-.02.421-.099.594-.228a.923.923 0 00.24-.29.964.964 0 00.101-.44.737.737 0 00-.114-.417.594.594 0 00-.265-.265.863.863 0 00-.417-.139h-2.223v1.778zm7.983-.139l-.543 1.437h-1.692l2.93-7.565h1.755l2.892 7.565h-1.629l-.53-1.437h-3.183zm.455-1.375h2.21l-1.099-3.114-1.111 3.114zm9.014-3.379v4.022a4.972 4.972 0 01-.113.605 2.77 2.77 0 01-.228.568 1.468 1.468 0 01-.39.479c-.148.135-.32.242-.506.315a2.085 2.085 0 01-.58.164c-.211.02-.422.02-.632 0h-.227V58.56h.139a.82.82 0 00.365-.075.886.886 0 00.278-.19.976.976 0 00.189-.264c.05-.088.087-.181.115-.278a5.44 5.44 0 00.1-.567v-4.842h5.367v7.565h-1.553V53.73h-2.324zm6.213 6.191v-7.565h1.554v2.736h1.768c.427-.008.853.052 1.263.176.349.1.661.302.896.58.169.2.298.431.379.681.095.298.143.608.139.92.008.439-.092.872-.291 1.262a1.968 1.968 0 01-.757.781 3.069 3.069 0 01-.935.353 6.552 6.552 0 01-1.124.089l-2.892-.013zm1.554-1.362h1.338c.197.013.396.013.594 0 .183-.027.362-.083.53-.164.177-.088.325-.223.43-.39a1.05 1.05 0 00.139-.593.972.972 0 00-.114-.505.86.86 0 00-.328-.302 1.361 1.361 0 00-.468-.139 3.499 3.499 0 00-.53 0h-1.528l-.063 2.093zM12.703 64.574l2.273 3.517 2.235-3.568h1.73v7.565h-1.616v-5.17l-2.02 3.28h-.708l-2.046-3.28v5.233h-1.54v-7.565l1.692-.012zm11.897-.089a4.124 4.124 0 011.567.278c.441.176.841.442 1.174.781.331.364.581.794.733 1.261a4.71 4.71 0 010 3.115 3.632 3.632 0 01-.733 1.26 3.446 3.446 0 01-1.187.82c-.506.2-1.047.295-1.591.278a4.095 4.095 0 01-1.579-.404 3.371 3.371 0 01-1.894-2.03 4.62 4.62 0 01-.253-1.538 4.422 4.422 0 01.266-1.475 3.302 3.302 0 011.932-2.03 4.121 4.121 0 011.566-.316zm-2.171 3.783c0 .316.047.63.139.933.078.287.211.557.391.794.18.231.409.42.67.555.3.14.627.213.96.215a1.91 1.91 0 001.603-.732c.182-.242.32-.516.404-.807.097-.305.144-.625.14-.945a3.351 3.351 0 00-.127-.934 2.361 2.361 0 00-.404-.794 1.933 1.933 0 00-.67-.555 2.187 2.187 0 00-.947-.201 2.273 2.273 0 00-.947.201 1.914 1.914 0 00-.67.555 2.42 2.42 0 00-.403.782 3.21 3.21 0 00-.14.996v-.063zm9.926-2.308v4.023a3.434 3.434 0 01-.127.605 2.68 2.68 0 01-.215.567 1.664 1.664 0 01-.391.48 1.615 1.615 0 01-.505.315c-.185.08-.38.136-.581.164-.21.018-.421.018-.631 0h-.228V70.79h.14a.86.86 0 00.365-.076c.102-.048.196-.112.278-.19a.998.998 0 00.19-.264 1.26 1.26 0 00.113-.277c.046-.187.076-.376.089-.568v-4.841h5.367v7.565h-1.54V65.96h-2.325zm9.581-1.475a4.125 4.125 0 011.566.278c.447.173.852.44 1.187.781.331.364.58.794.733 1.261a4.71 4.71 0 010 3.115 3.632 3.632 0 01-.733 1.26 3.448 3.448 0 01-1.187.82c-.506.2-1.047.295-1.591.278a4.095 4.095 0 01-1.579-.404 3.421 3.421 0 01-1.187-.756 3.489 3.489 0 01-.72-1.261 4.317 4.317 0 01-.252-1.539 4.417 4.417 0 01.252-1.563 3.63 3.63 0 01.758-1.261 3.27 3.27 0 011.187-.794 4.061 4.061 0 011.566-.215zm-2.16 3.783c-.006.317.041.632.14.933.078.287.211.557.391.794.18.231.409.42.67.555.3.142.627.215.96.215.318.018.635-.048.921-.19.268-.122.502-.308.682-.542.17-.204.306-.434.404-.68a3.4 3.4 0 000-1.88 2.622 2.622 0 00-.404-.794 1.932 1.932 0 00-.67-.555 2.227 2.227 0 00-.947-.201 2.187 2.187 0 00-.947.201c-.267.131-.5.32-.682.555-.177.235-.31.5-.391.782a2.82 2.82 0 00-.126.87v-.063zm14.866 5.8h-1.528v-1.916H48.44v1.916h-1.528V70.79h.278c.109.014.22.014.328 0a.68.68 0 00.253-.126.801.801 0 00.139-.202c.042-.088.072-.181.088-.278 0-.088 0-.176.063-.264.063-.089 0-.177 0-.252 0-.467.076-.959.089-1.45.012-.492 0-.971 0-1.45v-2.156h5.455v6.216h.922l.114 3.24zm-2.526-3.278v-4.83h-2.374v3.645c0 .214 0 .44-.076.642-.03.186-.08.368-.151.543h2.601zm9.76-6.216v1.387h-3.928v1.765h3.372V69.1h-3.372v1.69h3.928v1.361h-5.481v-7.565l5.48-.012zm-3.953-2.383a.924.924 0 01.669.24.832.832 0 01.252.642.87.87 0 01-.252.643.925.925 0 01-.67.24.899.899 0 01-.656-.24.834.834 0 01-.265-.643.808.808 0 01.265-.643.897.897 0 01.593-.24h.064zm2.601 0a.897.897 0 01.862.53.806.806 0 01.06.352.832.832 0 01-.265.643.9.9 0 01-.657.24.934.934 0 01-.682-.24.87.87 0 01-.252-.643.83.83 0 01.252-.643.935.935 0 01.62-.24h.062zm8.639 6.884v3.076H67.61v-3.076h-.897L65.06 72.15h-1.768l2.21-3.946-2.172-3.631h1.78l1.718 3.127h.783v-3.127h1.553V67.7h.758l1.73-3.127h1.768l-2.16 3.63 2.198 3.947H71.69l-1.654-3.076h-.872zm7.553.391l3.713-4.892h1.263v7.565h-1.566v-4.83l-3.713 4.842H75.15v-7.565h1.553l.013 4.88zm12.442-.328c.177-.139.34-.303.518-.467l.517-.504c.16-.163.3-.345.417-.542.115-.195.18-.416.19-.643a1.008 1.008 0 00-.304-.845 1.264 1.264 0 00-.858-.265 1.39 1.39 0 00-.77.227.856.856 0 00-.354.618h-1.377a2.117 2.117 0 011.061-1.84c.23-.138.482-.236.745-.29.282-.063.57-.092.859-.089a2.53 2.53 0 011.907.643c.21.186.375.42.48.68.131.307.196.638.19.972a3.68 3.68 0 01-.09.769c-.059.241-.157.47-.29.68a4.347 4.347 0 01-.278.392 2.402 2.402 0 01-.29.315 3.42 3.42 0 01-.303.302l-.379.328c-.253.24-.518.442-.745.643l-.682.568h2.867v1.361h-5.052v-1.26l2.02-1.753zm7.921-4.653a3.15 3.15 0 011.263.227 2.2 2.2 0 01.934.694c.291.373.502.802.619 1.26.151.564.223 1.145.214 1.728a5.834 5.834 0 01-.214 1.74 3.224 3.224 0 01-.594 1.26c-.25.312-.577.555-.947.707-.404.15-.832.223-1.263.214a3.465 3.465 0 01-1.263-.214 2.525 2.525 0 01-.947-.706 3.225 3.225 0 01-.593-1.261 7.111 7.111 0 010-3.467c.116-.459.327-.888.619-1.261a2.36 2.36 0 01.934-.694 3.151 3.151 0 011.238-.227zm0 6.305a1.265 1.265 0 001.073-.58 3.5 3.5 0 00.354-1.866 3.45 3.45 0 00-.392-1.904 1.261 1.261 0 00-1.073-.593 1.263 1.263 0 00-1.074.593 3.588 3.588 0 00-.379 1.904 3.64 3.64 0 00.38 1.916 1.262 1.262 0 001.11.58v-.05zm6.616-1.652c.176-.139.353-.303.53-.467l.505-.504c.16-.163.301-.345.417-.542a1.13 1.13 0 00.189-.643 1.007 1.007 0 00-.303-.845 1.264 1.264 0 00-.846-.265 1.444 1.444 0 00-.783.227.854.854 0 00-.353.618h-1.44a2.114 2.114 0 011.061-1.84 2.5 2.5 0 01.745-.29c.282-.063.57-.092.858-.089a2.531 2.531 0 011.907.643 1.8 1.8 0 01.48.68c.132.307.197.638.19.972.004.259-.026.517-.089.769-.059.241-.157.47-.29.68a4.431 4.431 0 01-.556.707l-.316.302-.366.328c-.265.24-.518.442-.757.643l-.682.568h2.967v1.361h-5.051v-1.26l1.983-1.753zm9.963.214h.859v1.387h-.859v1.412h-1.49V70.74h-3.7v-1.084l3.384-5.043h1.806v4.74zm-3.46 0h1.932v-2.988l-1.932 2.988z" fill="#fff"/></svg>