<svg width="12" height="12" fill="none" xmlns="http://www.w3.org/2000/svg"><g clip-path="url(#clip0_120_283)"><path d="M6.985.205a.675.675 0 00-.17.676 4.715 4.715 0 01-1.191 4.718A4.78 4.78 0 01.883 6.783a.682.682 0 00-.86.483.673.673 0 00.01.362 6.133 6.133 0 002.179 3.094 6.13 6.13 0 006.405.582 6.103 6.103 0 002.469-2.244 6.063 6.063 0 00-.314-6.859A6.162 6.162 0 007.662.035a.682.682 0 00-.677.17zm2.702 2.81a4.717 4.717 0 01-.436 6.192 4.77 4.77 0 01-7.423-.884 6.135 6.135 0 004.757-1.769 6.077 6.077 0 001.777-4.735 4.79 4.79 0 011.325 1.196z" fill="#3C3C3B"/></g><defs><clipPath id="clip0_120_283"><path fill="#fff" transform="rotate(-90 6 6)" d="M0 0h12v12H0z"/></clipPath></defs></svg>