<svg width="361" height="504" fill="none" xmlns="http://www.w3.org/2000/svg"><g clip-path="url(#clip0_113_464)" fill="#F8F8F8"><path d="M346.528 70.44s-.457-.156-.685-.313l-.991-.47-1.98-.86-15.999-6.887v54.078c0 9.783-.229 19.565-.686 28.957-.99 21.287-3.2 42.417-6.552 62.765l31.236 8.061v.078l1.143-7.043c.381-2.583.762-5.087 1.142-7.67.305-2.27.61-4.539.915-6.73 2.057-15.809 3.428-31.774 4.19-47.661.457-9.705.685-19.957.685-30.522V75.919l-12.57-5.4.152-.079zM179.11 0L0 76.852v39.209c0 75.13 12.875 144.547 38.168 206.295 7.924 19.252 17.066 37.8 27.274 55.174a232.217 232.217 0 005.105 8.452c.914 1.487 1.98 3.131 2.971 4.853l30.398-7.827c-4.572-6.887-8.99-13.93-13.028-20.973-9.447-16.279-18.056-33.653-25.37-51.496-23.845-57.991-35.882-123.418-35.882-194.478V97.043L179.11 32.87l136.37 58.774v-32.87L179.11 0zm125.78 75.208L179.11 21.052 18.97 89.843v26.296c0 72.469 12.342 139.382 36.72 198.704 7.543 18.392 16.304 36.157 26.056 52.905l5.028 8.452-8.456 2.191a153.032 153.032 0 01-3.733-6.339c-9.98-16.983-18.894-35.139-26.589-53.922-24.76-60.339-37.33-128.348-37.33-202.069v-31.93L179.11 11.816l125.78 54.157v9.234zm-127.595 387.23c-4.952-3.913-9.904-8.217-14.856-12.756-6.857-6.261-13.561-12.991-20.036-19.878l-2.515-2.818c-9.446-10.33-18.589-21.756-27.35-33.887l-33.597 8.609c.762 1.174 1.6 2.348 2.362 3.522a463.803 463.803 0 0016.836 23.009c1.448 1.878 2.972 3.678 4.419 5.478 1.219 1.487 2.514 3.052 3.733 4.539.61.704 1.143 1.33 1.752 2.035a310.967 310.967 0 008.228 9.313l.686.782c1.905 2.113 3.809 4.226 5.79 6.261l5.942 6.105c4.038 3.991 8.076 7.904 12.19 11.66 1.219 1.096 2.362 2.113 3.504 3.209 1.143 1.017 2.286 2.035 3.429 2.974 15.617 13.539 27.274 21.13 31.007 23.478.914-.626 2.59-1.643 4.723-3.13l1.371-.939c.686-.47 1.448-1.018 2.21-1.487 5.561-3.992 11.199-8.296 16.76-12.913.229-.157.458-.392.686-.548l-27.426-22.539.152-.079zm171.613-234.932l-31.235-8.061c-8.533 45.391-22.932 87.652-42.968 125.844-28.265 54.156-62.167 89.843-86.546 110.817l25.446 21.13a74.126 74.126 0 002.666-2.426l.153-.156c1.752-1.644 3.58-3.287 5.333-5.009a336.02 336.02 0 0014.932-15.026c.533-.548.99-1.096 1.523-1.643 1.524-1.644 3.124-3.366 4.648-5.087 1.066-1.174 2.057-2.348 3.123-3.522.991-1.174 2.057-2.348 3.124-3.6.381-.47.838-.939 1.219-1.409 1.219-1.409 2.438-2.817 3.58-4.304 1.6-1.957 3.2-3.913 4.8-5.948 1.905-2.348 3.733-4.774 5.638-7.278a368.173 368.173 0 008.456-11.505c.914-1.33 1.905-2.661 2.819-4.069a423.482 423.482 0 0027.35-45.313c21.256-40.539 36.645-85.461 45.787-133.435h.152zm-55.157 128.27c-8.076 15.417-17.065 30.286-26.665 44.139-.99 1.487-1.828 2.739-2.742 3.913-3.048 4.304-5.714 7.982-8.228 11.191a565.971 565.971 0 01-5.486 7.122c-1.599 1.956-3.123 3.913-4.647 5.791-1.143 1.409-2.285 2.817-3.428 4.148l-1.067 1.252c-.838.939-1.447 1.722-2.133 2.426l-1.143 1.252c-1.066 1.174-2.057 2.27-2.971 3.366-1.6 1.8-3.047 3.365-4.495 5.008l-1.523 1.565c-4.571 4.853-9.371 9.627-14.552 14.635-.457.392-.914.861-1.371 1.252l-8.533-7.121c23.541-21.913 53.71-56.192 79.385-105.339 18.817-35.922 32.835-75.444 41.749-117.627l10.589 2.74c-9.142 43.121-23.465 83.504-42.663 120.208m-54.239-121.231h13.714l-6.933-16.357-6.781 16.357z"/><path d="M119.741 205.277h-12.113v19.409h12.113c4.495 0 7.162-4.931 7.162-9.861 0-4.93-2.438-9.548-7.162-9.548z"/><path d="M269.023 85.692l-89.898-38.583-136.751 58.696v10.252c0 69.261 11.732 133.043 34.892 189.391a401.144 401.144 0 0024.608 49.852 373.21 373.21 0 0015.161 24.026l3.733 5.244a403.146 403.146 0 0017.141 22.383c1.067 1.252 2.057 2.504 3.276 3.913 2.362 2.739 4.724 5.4 7.085 8.06l2.438 2.74c6.247 6.73 12.799 13.226 19.351 19.174 1.219 1.095 2.362 2.191 3.581 3.208.762.705 4.723 4.07 5.257 4.618 23.693-20.035 57.519-55.018 85.707-109.018 21.713-41.4 36.645-87.808 44.416-137.974 2.895-18.861 4.875-38.191 5.79-57.287.457-8.921.609-18.469.609-28.33v-10.409l-46.472-19.956h.076zm-149.246 154.33h-11.884v17.452H90.675v-67.617c9.752 0 19.275-.078 29.026 0 15.847 0 23.922 12.678 23.617 25.435 0 12.365-7.999 24.73-23.617 24.73m92.031 17.609h-19.503L177.83 231.57c-1.981.313-5.866.313-8.152.313v25.826h-17.217v-67.617h17.217v26.452c2.743 0 7.238.156 9.599-1.096 3.048-1.565 4.038-5.635 5.943-13.695 1.981-8.218 8.38-14.87 23.769-11.583v11.896c-4.114-.313-6.932.704-7.999 4.852-2.209 8.139-4.419 13.852-8.076 18 6.324 10.095 12.419 20.191 18.818 30.287v2.582-.156zm68.642 0h-17.751l-3.885-8.374H234.13l-3.733 8.374h-17.979v-2.426l30.169-65.896h7.923l29.94 65.896v2.426h-.076z"/></g><defs><clipPath id="clip0_113_464"><path fill="#fff" d="M0 0h361v504H0z"/></clipPath></defs></svg>