<svg width="230" height="87" fill="none" xmlns="http://www.w3.org/2000/svg"><g clip-path="url(#clip0_113_266)" fill="#fff"><path d="M30.638 63.743c-6.88 0-12.46-5.437-12.46-12.143 0-6.708 5.58-12.143 12.46-12.143 6.879 0 12.46 5.435 12.46 12.143 0 6.706-5.581 12.143-12.46 12.143zm58.584-19.197c-6.775 2.266-33.225 11.071-49.15 15.84 15.735-6.18 43.257-18.062 49.014-20.555-.016-.177-.01-.357-.028-.532-5.193 2.248-32.192 13.91-48.24 20.253 15.67-7.762 43.425-22.714 47.523-24.925-.036-.17-.093-.33-.13-.498-3.503 1.89-30.737 16.569-46.728 24.534 15.397-9.353 42.938-27.437 45.422-29.07-.055-.163-.123-.319-.182-.48-1.454.955-28.785 18.913-44.631 28.591 15.014-11.002 42.148-32.42 42.792-32.928-.022-.04-.04-.077-.06-.115l-.24-.291c-.306.242-26.74 21.112-41.985 32.334C56.662 44.392 82.015 20.52 82.305 20.247l-.354-.36c-.285.268-24.756 23.31-38.938 35.787C55.67 42.472 78.138 17.29 79.249 16.044a36.59 36.59 0 00-.327-.392c-.33.37-22.582 25.326-35.576 38.941 11.009-13.706 30.075-39.234 32.358-42.297-.122-.116-.256-.222-.38-.336-2.085 2.795-20.622 27.623-31.762 41.55 9.418-14.1 25.36-39.866 28.217-44.495-.136-.103-.275-.2-.412-.3-2.733 4.425-18.176 29.39-27.672 43.682 7.859-14.369 20.823-40.133 23.86-46.183-.147-.086-.292-.175-.44-.26-2.937 5.855-15.484 30.79-23.39 45.326 6.327-14.49 16.467-40.016 19.37-47.36-.155-.069-.303-.15-.462-.218-2.826 7.148-12.632 31.835-18.984 46.473 4.846-14.48 12.317-39.55 14.826-48.025-.162-.053-.316-.123-.481-.173-2.448 8.262-9.667 32.496-14.518 47.104C46.888 34.745 51.86 10.348 53.764.909c-.165-.034-.335-.059-.5-.089-1.863 9.233-6.655 32.743-10.055 47.172C45.25 33.935 47.902 10.439 49.03.208c-.166-.017-.342-.012-.51-.027-1.106 10.011-3.657 32.641-5.677 46.764.75-13.66 1.28-36.117 1.505-46.94-.172 0-.34.02-.511.024-.22 10.575-.73 32.178-1.45 45.887-.456-13.17-1.85-34.456-2.615-45.658-.172.02-.335.057-.505.075.744 10.933 2.085 31.404 2.574 44.604C40.266 32.331 37.16 12.313 35.353.944c-.168.034-.33.089-.495.125 1.756 11.084 4.744 30.33 6.349 42.943-2.593-11.959-7.218-30.639-10.069-41.988-.165.05-.32.12-.484.173 2.776 11.049 7.22 28.993 9.842 40.945-3.515-11.249-9.46-28.54-13.341-39.688-.157.066-.304.15-.463.218C30.464 14.51 36.17 31.1 39.704 42.324 35.37 31.839 28.3 15.98 23.442 5.199c-.153.079-.295.171-.446.252 4.72 10.47 11.507 25.689 15.853 36.14-5.051-9.686-13.061-24.097-18.833-34.375-.14.09-.29.173-.43.267 5.592 9.964 13.28 23.79 18.337 33.436-5.666-8.858-14.441-21.825-21.033-31.471-.134.103-.276.193-.412.299 6.386 9.343 14.808 21.79 20.47 30.6C30.764 32.33 21.38 20.774 14.06 11.848c-.123.114-.256.221-.378.336 7.076 8.63 16.073 19.705 22.241 27.663-6.61-7.17-16.458-17.345-24.395-25.467-.116.122-.232.244-.344.368 7.67 7.85 17.11 17.601 23.693 24.71-6.947-6.33-17.142-15.185-25.6-22.457-.104.132-.205.267-.307.4 8.142 7.003 17.883 15.463 24.79 21.724-7.211-5.503-17.61-13.07-26.467-19.445-.091.14-.173.287-.266.428 8.527 6.137 18.466 13.37 25.618 18.8-7.39-4.686-17.898-11.031-27.055-16.495-.081.145-.177.284-.257.43 8.801 5.254 18.849 11.317 26.169 15.938-7.486-3.888-17.982-9.058-27.325-13.598-.071.15-.153.295-.222.447 8.979 4.364 19.015 9.306 26.425 13.132-7.524-3.12-17.95-7.195-27.4-10.829-.061.156-.117.314-.177.47 9.053 3.48 18.992 7.36 26.42 10.423-7.51-2.386-17.791-5.426-27.255-8.167-.052.158-.08.323-.13.483 9.057 2.623 18.85 5.516 26.251 7.85-7.42-1.678-17.458-3.74-26.838-5.612-.042.161-.091.32-.13.483 8.978 1.791 18.551 3.756 25.862 5.394C19.693 38.25 9.928 37.092.688 36.05c-.03.162-.052.33-.077.493 8.825.994 18.122 2.096 25.294 3.07-7.129-.372-16.586-.688-25.629-.936-.02.165-.05.328-.066.496 8.632.237 17.64.536 24.645.885-6.906.228-15.984.694-24.753 1.196-.008.166-.019.333-.026.5 8.348-.477 16.975-.923 23.752-1.162-6.674.794-15.367 1.982-23.828 3.19.002.17.023.333.026.5 8.063-1.15 16.332-2.283 22.87-3.075C16.5 42.525 8.235 44.381.13 46.251c.009.168.01.339.024.506 7.712-1.779 15.571-3.544 21.834-4.85C15.884 43.719 8.053 46.19.33 48.68c.02.17.056.333.079.5 7.35-2.368 14.796-4.722 20.769-6.508C15.39 44.942 8.015 47.985.7 51.05c.03.167.048.34.08.507 6.957-2.917 13.976-5.815 19.639-8.052-5.451 2.7-12.36 6.268-19.238 9.87.043.168.091.331.133.497 6.528-3.42 13.087-6.811 18.413-9.462-5.102 3.1-11.528 7.151-17.942 11.25.05.169.083.344.135.511 6.109-3.907 12.233-7.772 17.226-10.82-4.737 3.471-10.674 7.974-16.61 12.537.057.165.12.328.182.492 5.644-4.337 11.291-8.622 15.914-12.026-4.363 3.822-9.813 8.751-15.265 13.75.069.166.135.333.206.496 5.184-4.754 10.372-9.452 14.634-13.203-3.964 4.138-8.894 9.449-13.828 14.835.08.162.159.326.24.485 4.7-5.13 9.398-10.197 13.275-14.258-3.577 4.45-8.002 10.149-12.432 15.926.088.158.196.303.287.46 4.212-5.499 8.429-10.93 11.918-15.295-3.154 4.726-7.044 10.763-10.933 16.88.104.158.198.32.3.478 3.705-5.832 7.412-11.596 10.5-16.242-2.733 5-6.082 11.373-9.42 17.823.11.15.23.295.34.446 3.186-6.156 6.386-12.249 9.056-17.161-2.294 5.252-5.087 11.953-7.859 18.72.125.151.233.315.36.467 2.65-6.475 5.322-12.897 7.57-18.073-1.837 5.488-4.049 12.497-6.23 19.551.135.147.27.288.402.43 2.087-6.75 4.206-13.472 5.999-18.883-1.363 5.73-2.976 13.065-4.542 20.416.139.137.295.255.438.389 1.5-7.039 3.045-14.076 4.374-19.727-.861 5.939-1.832 13.56-2.753 21.163.157.134.304.28.464.412.882-7.306 1.815-14.645 2.655-20.52-.337 6.14-.63 14.054-.87 21.898.165.124.333.244.5.365.228-7.54.509-15.16.827-21.239.219 6.34.656 14.553 1.136 22.626.17.111.355.205.53.314-.463-7.766-.887-15.685-1.12-21.966.812 6.505 2.033 14.986 3.272 23.243.196.105.375.23.568.334-1.198-7.965-2.385-16.172-3.209-22.64 1.443 6.647 3.511 15.366 5.558 23.757.197.092.393.19.594.28-1.979-8.108-3.986-16.553-5.437-23.167 2.114 6.764 5.105 15.713 8.002 24.203.204.075.409.145.613.218-2.801-8.206-5.705-16.875-7.828-23.613 2.834 6.853 6.832 15.997 10.624 24.527.207.058.419.101.625.156-3.668-8.254-7.55-17.116-10.391-23.948 3.596 6.898 8.695 16.193 13.42 24.69.206.042.422.057.632.094-4.571-8.223-9.518-17.228-13.126-24.11 4.4 6.878 10.672 16.231 16.345 24.59.223.024.44.053.666.073-5.507-8.11-11.61-17.202-16.036-24.083 5.244 6.794 12.785 16.129 19.417 24.25.231.005.453.033.682.033-6.451-7.896-13.807-16.995-19.087-23.806 6.124 6.646 15.032 15.87 22.629 23.656.222-.015.449-.013.673-.032-7.382-7.561-16.06-16.544-22.23-23.207 7.04 6.411 17.394 15.401 25.909 22.72.217-.037.44-.058.659-.1-8.279-7.111-18.375-15.87-25.471-22.306 7.974 6.086 19.86 14.704 29.234 21.434.213-.056.429-.1.64-.158-9.112-6.54-20.694-14.933-28.742-21.047 8.926 5.661 22.394 13.736 32.53 19.754.202-.077.416-.137.615-.218-9.865-5.855-23.02-13.738-32.03-19.427 9.873 5.13 24.994 12.495 35.78 17.693.19-.095.383-.182.567-.282-10.486-5.051-25.23-12.227-35.205-17.38 10.803 4.48 27.585 10.926 38.856 15.202.165-.11.318-.238.482-.351-10.949-4.155-27.283-10.423-38.188-14.918 11.683 3.713 30.087 9.01 41.653 12.295.15-.126.29-.263.441-.393-11.22-3.186-29.126-8.336-40.935-12.062 12.518 2.831 32.502 6.76 44.147 9.01.137-.14.268-.285.401-.43-11.31-2.184-30.819-6.016-43.485-8.853 13.299 1.837 34.867 4.182 46.379 5.398.117-.154.24-.305.356-.463-11.141-1.176-32.14-3.455-45.608-5.282 14.015.729 37.017 1.242 48.12 1.462.097-.167.21-.323.306-.492-10.734-.21-33.2-.71-47.4-1.42 14.628-.481 38.996-2.03 49.447-2.716.072-.168.125-.345.194-.514-10.087.664-33.817 2.176-48.632 2.698 15.1-1.792 40.57-5.623 50.162-7.086.048-.173.09-.35.137-.524-9.21 1.404-34.024 5.142-49.336 6.992 15.45-3.185 41.818-9.506 50.33-11.559.026-.178.056-.355.082-.534-8.107 1.957-33.856 8.131-49.535 11.4C54.883 56.51 81.959 47.5 89.192 45.081c.008-.179.025-.355.03-.536zM115.15 29.72c.521 0 1.017.067 1.488.202.47.13.856.29 1.156.479.305.189.572.378.804.567.234.189.402.348.504.479l.159.202-1.349 1.316c-.027-.036-.068-.086-.118-.149a2.641 2.641 0 00-.325-.337 3.001 3.001 0 00-.547-.412 3.426 3.426 0 00-.783-.33 3.216 3.216 0 00-.989-.155c-.928 0-1.703.303-2.326.91-.624.608-.934 1.363-.934 2.267 0 .904.31 1.66.934 2.267.623.607 1.398.91 2.326.91.359 0 .703-.047 1.031-.14.333-.1.608-.215.824-.345.217-.135.409-.27.574-.405.167-.135.287-.252.361-.35l.11-.142 1.281 1.315a2.465 2.465 0 01-.173.216c-.074.085-.243.24-.506.466-.258.22-.537.416-.837.587-.296.166-.685.319-1.17.459-.48.139-.978.209-1.495.209-1.514 0-2.792-.493-3.835-1.478-1.038-.99-1.558-2.18-1.558-3.569 0-1.39.52-2.577 1.558-3.562 1.043-.985 2.321-1.477 3.835-1.477zm14.739 9.876h-2.126V33.45l-4.887 6.146h-1.847v-9.674h2.131v6.152l4.888-6.152h1.841v9.674zm10.844-9.674v9.674h-2.126v-7.805H135.7v1.106c0 1.363-.078 2.507-.235 3.434-.153.922-.382 1.63-.685 2.125-.3.495-.638.843-1.011 1.046-.374.202-.817.303-1.329.303-.209 0-.419-.022-.63-.067a3.434 3.434 0 01-.47-.115l-.173-.054v-1.977c.234.09.47.138.705.142.369 0 .666-.108.894-.324.23-.22.421-.694.574-1.423.157-.733.235-1.759.235-3.077v-2.988h7.158zm6.733 9.674h-4.181v-9.674h2.131v3.177h2.05c1.02 0 1.864.313 2.533.938.674.62 1.01 1.392 1.01 2.314 0 .922-.336 1.694-1.01 2.314-.669.62-1.513.931-2.533.931zm-2.05-1.862h1.981c.424 0 .778-.133 1.059-.398a1.3 1.3 0 00.429-.985 1.28 1.28 0 00-.429-.978c-.281-.27-.635-.405-1.059-.405h-1.981v2.766zm16.016-7.812v9.674h-2.125v-3.94h-4.251v3.94h-2.131v-9.674h2.131v3.872h4.251v-3.872h2.125zm13.397 0v9.674h-2.125v-9.674h2.125zm-6.805 9.674h-4.043v-9.674h2.133v3.177h1.91c1.021 0 1.865.313 2.533.938.675.62 1.011 1.392 1.011 2.314 0 .922-.336 1.694-1.011 2.314-.668.62-1.512.931-2.533.931zm-1.91-1.862h1.841c.425 0 .778-.133 1.059-.398.285-.27.429-.598.429-.985s-.144-.713-.429-.978c-.281-.27-.634-.405-1.059-.405h-1.841v2.766zm13.397 0h5.316v1.862h-7.449v-9.674h7.302v1.869h-5.169v1.936h4.035v1.862h-4.035v2.145zm19.054 1.862h-2.126V33.45l-4.886 6.146h-1.849v-9.674h2.132v6.152l4.887-6.152h1.842v9.674zm1.278-1.862h.568a4.45 4.45 0 00.158-.169 5.08 5.08 0 00.382-.54c.18-.283.336-.593.471-.93.138-.338.262-.794.373-1.37a9.321 9.321 0 00.172-1.828v-2.975h6.874v7.812h1.213V41.6h-2.134v-2.004h-5.953V41.6h-2.124v-3.866zm4.249-4.837a9.54 9.54 0 01-.166 1.821c-.105.572-.234 1.033-.387 1.383a7.523 7.523 0 01-.449.911c-.153.257-.28.441-.382.553l-.172.17h4.181V31.79h-2.625v1.106zm9.717 4.837h5.317v1.862h-7.448v-9.674h7.302v1.869h-5.171v1.936h4.036v1.862h-4.036v2.145zm16.149 1.862h-2.126V33.45l-4.886 6.146h-1.849v-9.674h2.132v6.152l4.888-6.152h1.841v9.674zM109.052 53.693h.567c.037-.036.091-.092.16-.169.073-.08.201-.26.38-.54.18-.283.338-.593.471-.93.138-.338.263-.794.373-1.37a9.244 9.244 0 00.174-1.828V45.88h6.873v7.813h1.211v3.866h-2.131v-2.004h-5.953v2.004h-2.125v-3.866zm4.249-4.837c0 .643-.054 1.25-.165 1.821-.107.571-.236 1.032-.387 1.383a7.42 7.42 0 01-.451.91 3.607 3.607 0 01-.381.554l-.173.169h4.181v-5.944h-2.624v1.107zm16.295-2.976v9.675h-2.126v-7.806h-2.906v1.107c0 1.362-.078 2.507-.236 3.434-.153.922-.381 1.63-.685 2.125-.3.495-.636.843-1.011 1.046-.374.202-.817.303-1.329.303a3.04 3.04 0 01-.63-.067 3.513 3.513 0 01-.47-.115l-.173-.054v-1.977c.234.09.47.137.705.142.37 0 .667-.108.894-.324.23-.22.422-.695.574-1.423.157-.734.236-1.76.236-3.077V45.88h7.157zm9.923 0v9.675h-2.123v-3.387h-1.841l-1.919 3.387h-2.262l2.123-3.663a3.358 3.358 0 01-.193-.088 3.132 3.132 0 01-.422-.31 3.835 3.835 0 01-.541-.54 2.943 2.943 0 01-.429-.803 3.204 3.204 0 01-.187-1.093c0-.895.321-1.648.964-2.26.64-.612 1.453-.918 2.435-.918h4.395zm-5.669 3.178c0 .35.127.648.382.89.257.239.582.358.969.358h2.195V47.75h-2.195c-.387 0-.712.124-.969.371a1.25 1.25 0 00-.382.938zm19.635-3.178v9.675h-2.125v-3.94h-4.251v3.94h-2.13V45.88h2.13v3.873h4.251V45.88h2.125zm5.112 2.585c-.619.611-.928 1.365-.928 2.26 0 .89.309 1.641.928 2.253.616.612 1.37.918 2.255.918.891 0 1.646-.306 2.263-.918.619-.612.927-1.363.927-2.253 0-.895-.308-1.649-.927-2.26-.617-.616-1.372-.925-2.263-.925-.885 0-1.639.309-2.255.925zm-1.572 5.822c-1.039-.99-1.559-2.18-1.559-3.569 0-1.39.52-2.577 1.559-3.562 1.042-.985 2.318-1.478 3.827-1.478 1.513 0 2.79.493 3.828 1.478 1.043.985 1.565 2.172 1.565 3.562 0 1.39-.522 2.58-1.565 3.57-1.038.984-2.315 1.476-3.828 1.476-1.509 0-2.785-.492-3.827-1.477zm15.7 1.268h-4.499V45.88h4.256c.901 0 1.643.257 2.23.77.59.512.886 1.108.886 1.787 0 .257-.037.502-.112.736-.073.23-.168.42-.283.573-.115.153-.23.286-.346.398a1.777 1.777 0 01-.276.23l-.119.067a2.7 2.7 0 01.568.33c.189.131.354.275.498.432.143.158.273.374.387.648.121.27.182.56.182.87 0 .774-.317 1.44-.95 1.997-.632.558-1.439.837-2.422.837zm-2.367-1.727h2.262c.39 0 .709-.12.964-.358.257-.238.387-.533.387-.884 0-.35-.13-.645-.387-.883-.255-.243-.574-.365-.964-.365h-2.262v2.49zm1.98-6.22h-1.98v2.078h1.98c.351 0 .627-.095.831-.284.201-.189.303-.44.303-.756 0-.315-.102-.566-.303-.755-.204-.189-.48-.283-.831-.283zm8.302.857c-.619.611-.928 1.365-.928 2.26 0 .89.309 1.641.928 2.253.618.612 1.371.918 2.256.918.89 0 1.645-.306 2.264-.918.618-.612.928-1.363.928-2.253 0-.895-.31-1.649-.928-2.26-.619-.616-1.374-.925-2.264-.925-.885 0-1.638.309-2.256.925zm-1.571 5.822c-1.039-.99-1.557-2.18-1.557-3.569 0-1.39.518-2.577 1.557-3.562 1.041-.985 2.318-1.478 3.827-1.478 1.514 0 2.789.493 3.828 1.478 1.043.985 1.565 2.172 1.565 3.562 0 1.39-.522 2.58-1.565 3.57-1.039.984-2.314 1.476-3.828 1.476-1.509 0-2.786-.492-3.827-1.477zm11.201 1.268V45.88h6.736v1.87h-4.604v7.805h-2.132zm10.425-7.09c-.618.611-.927 1.365-.927 2.26 0 .89.309 1.641.927 2.253.62.612 1.37.918 2.258.918.89 0 1.644-.306 2.263-.918.619-.612.927-1.363.927-2.253 0-.895-.308-1.649-.927-2.26-.619-.616-1.373-.925-2.263-.925-.888 0-1.638.309-2.258.925zm-1.571 5.822c-1.037-.99-1.557-2.18-1.557-3.569 0-1.39.52-2.577 1.557-3.562 1.043-.985 2.32-1.478 3.829-1.478 1.513 0 2.789.493 3.828 1.478 1.043.985 1.563 2.172 1.563 3.562 0 1.39-.52 2.58-1.563 3.57-1.039.984-2.315 1.476-3.828 1.476-1.509 0-2.786-.492-3.829-1.477zm-84.3 17.213h-4.499v-9.675h4.257c.9 0 1.643.257 2.228.77.591.512.886 1.108.886 1.787 0 .257-.035.502-.109.736a1.94 1.94 0 01-.284.573 3.698 3.698 0 01-.346.398 1.692 1.692 0 01-.278.23l-.117.067a2.696 2.696 0 01.568.33c.188.13.355.275.498.432.142.158.272.374.388.648.119.27.179.56.179.87 0 .774-.315 1.44-.948 1.997-.633.558-1.44.837-2.423.837zm-2.368-1.727h2.265c.387 0 .708-.12.961-.358.259-.238.387-.533.387-.884 0-.35-.128-.645-.387-.883-.253-.243-.574-.365-.961-.365h-2.265v2.49zm1.981-6.22h-1.981v2.077h1.981c.35 0 .628-.094.83-.283.204-.189.306-.44.306-.756 0-.315-.102-.566-.306-.755-.202-.19-.48-.284-.83-.284zm5.741-1.728h4.181c1.018 0 1.865.313 2.533.938.675.62 1.01 1.392 1.01 2.314 0 .918-.334 1.69-1.003 2.314-.669.62-1.517.931-2.54.931h-2.049V71.5h-2.132v-9.675zm4.112 1.869h-1.98v2.76h1.98c.424 0 .778-.133 1.059-.399.285-.265.429-.591.429-.978s-.144-.713-.429-.978c-.281-.27-.635-.405-1.059-.405zm7.659 5.944h5.318V71.5h-7.449v-9.675h7.302v1.869h-5.171v1.936h4.036v1.862h-4.036v2.146zm12.604-3.596l3.433-4.217h1.883V71.5h-2.126v-6.45l-3.19 3.96-3.184-3.933V71.5h-2.132v-9.675h1.918l3.398 4.217zm10 3.596h5.317V71.5h-7.448v-9.675h7.301v1.869h-5.17v1.936h4.035v1.862h-4.035v2.146zm15.796-7.813V71.5h-2.126v-3.94h-4.249v3.94h-2.132v-9.675h2.132v3.873h4.249v-3.873h2.126zm11.409 9.675h-2.124v-6.146l-4.886 6.146h-1.849v-9.675h2.132v6.153l4.886-6.153h1.841V71.5z"/></g><defs><clipPath id="clip0_113_266"><path fill="#fff" transform="translate(0 .004)" d="M0 0h230v87H0z"/></clipPath></defs></svg>