<?xml version="1.0" encoding="utf-8"?><svg viewBox="0 0 32 30" xmlns="http://www.w3.org/2000/svg" xmlns:xlink="http://www.w3.org/1999/xlink"><style>:root>svg{display:none}:root>svg:target{display:block}</style><svg fill="none" viewBox="0 0 17 11" id="icon-arrow-down" xmlns="http://www.w3.org/2000/svg"><path d="M1 1l7.5 8L16 1" stroke="currentColor" stroke-width="2"/></svg><svg fill="none" viewBox="0 0 30 30" id="icon-arrow-next" xmlns="http://www.w3.org/2000/svg"><path fill-rule="evenodd" clip-rule="evenodd" d="M17 5l10 10-10 10-2.5-2.5L22 15l-7.5-7.5L17 5z" fill="#DD7336"/><path fill-rule="evenodd" clip-rule="evenodd" d="M4.5 5l10 10-10 10L2 22.5 9.5 15 2 7.5 4.5 5z" fill="currentColor"/></svg><svg fill="none" viewBox="0 0 30 30" id="icon-arrow-prev" xmlns="http://www.w3.org/2000/svg"><path fill-rule="evenodd" clip-rule="evenodd" d="M13 25L3 15 13 5l2.5 2.5L8 15l7.5 7.5L13 25z" fill="currentColor"/><path fill-rule="evenodd" clip-rule="evenodd" d="M25.5 25l-10-10 10-10L28 7.5 20.5 15l7.5 7.5-2.5 2.5z" fill="#DD7336"/></svg><svg fill="none" viewBox="0 0 32 30" id="icon-arrow-top-right" xmlns="http://www.w3.org/2000/svg"><path fill-rule="evenodd" clip-rule="evenodd" d="M25.958 8.14a.958.958 0 01.678 1.173l-3.26 12.211a.958.958 0 11-1.852-.495l2.663-9.976L6.277 21.41a.958.958 0 11-.96-1.66L23.232 9.394 13.256 6.71a.958.958 0 11.496-1.851L25.958 8.14z" fill="currentColor"/></svg><svg fill="none" viewBox="0 0 20 14" id="icon-caret" xmlns="http://www.w3.org/2000/svg"><path fill-rule="evenodd" clip-rule="evenodd" d="M20 3.25l-10 10-10-10L2.5.75l7.5 7.5 7.5-7.5 2.5 2.5z" fill="#DD7336"/></svg><svg fill="none" viewBox="0 0 14 13" id="icon-download" xmlns="http://www.w3.org/2000/svg"><path d="M1.75 13A1.75 1.75 0 010 11.25v-2.5a.75.75 0 011.5 0v2.5c0 .138.112.25.25.25h10.5a.25.25 0 00.25-.25v-2.5a.75.75 0 111.5 0v2.5A1.75 1.75 0 0112.25 13H1.75z" fill="currentColor"/><path d="M6.25 6.439V.75a.75.75 0 011.5 0v5.689L9.72 4.47a.75.75 0 111.06 1.06L7.53 8.78a.75.75 0 01-1.06 0L3.22 5.53a.75.75 0 011.06-1.06l1.97 1.969z" fill="currentColor"/></svg><svg fill="none" viewBox="0 0 20 20" id="icon-phone" xmlns="http://www.w3.org/2000/svg"><path d="M17.5 12.094l-3.679-1.65-.014-.006a1.557 1.557 0 00-1.572.202l-1.743 1.485c-1.015-.55-2.065-1.591-2.616-2.595l1.489-1.77a1.563 1.563 0 00.19-1.575L7.906 2.5a1.567 1.567 0 00-1.623-.926A4.709 4.709 0 002.188 6.25c0 6.376 5.186 11.562 11.562 11.562a4.709 4.709 0 004.676-4.095 1.567 1.567 0 00-.926-1.623zm-3.75 3.843A9.7 9.7 0 014.063 6.25a2.835 2.835 0 012.225-2.777l1.47 3.282L6.26 8.537a.938.938 0 00-.067.091 1.562 1.562 0 00-.1 1.534c.736 1.507 2.252 3.013 3.774 3.75a1.562 1.562 0 001.538-.113c.03-.02.06-.042.087-.066l1.752-1.49 3.282 1.47a2.835 2.835 0 01-2.777 2.224z" fill="currentColor"/></svg></svg>