<svg width="12" height="12" fill="none" xmlns="http://www.w3.org/2000/svg"><g clip-path="url(#clip0_2001_1479)"><path d="M10.313 5.438h.75a.562.562 0 110 1.125h-.75a.562.562 0 110-1.125zM6 9.188a3.187 3.187 0 110-6.375 3.187 3.187 0 010 6.374zm0-1.126a2.062 2.062 0 100-4.124 2.062 2.062 0 000 4.124zm2.79-5.647a.563.563 0 10.796.796l.563-.562a.563.563 0 00-.797-.797l-.562.563zm-5.579 0l-.562-.563a.564.564 0 00-.797.797l.563.562a.563.563 0 00.796-.796zm5.414 6.772a.562.562 0 00.165.398l.562.563a.563.563 0 00.797-.797l-.563-.562a.563.563 0 00-.961.399zm-5.415.398a.563.563 0 00-.796-.796l-.563.562a.564.564 0 00.797.797l.562-.563zM6 2.25a.563.563 0 00.563-.563v-.75a.562.562 0 10-1.125 0v.75A.563.563 0 006 2.25zM2.25 6a.563.563 0 00-.563-.563h-.75a.562.562 0 100 1.125h.75A.563.563 0 002.25 6zm4.313 5.063v-.75a.562.562 0 10-1.125 0v.75a.562.562 0 101.125 0z" fill="#DD7336"/></g><defs><clipPath id="clip0_2001_1479"><path fill="#fff" transform="rotate(90 6 6)" d="M0 0h12v12H0z"/></clipPath></defs></svg>